<svg xmlns="http://www.w3.org/2000/svg" fill="none" viewBox="0 0 1001 751" height="751" width="1001">
<path fill="white" d="M878.679 358.945C878.679 366.336 867.545 372.323 853.807 372.323C840.076 372.323 828.942 366.336 828.942 358.945C828.942 351.568 840.076 345.573 853.807 345.573C867.545 345.573 878.679 351.568 878.679 358.945"></path>
<path fill="white" d="M220.924 433.006C168.323 427.241 135.83 414.942 124.316 396.432C128.547 418.641 135.802 455.056 141.609 475.538C142.862 479.95 144.905 484.62 147.935 489.492C161.371 511.198 182.047 520.316 218.671 524.324C227.394 525.282 235.67 525.929 243.032 526.383L224.573 433.394C223.4 433.272 222.183 433.15 220.924 433.006M174.045 417.814L286.586 329.007L268.796 224.518C268.796 224.518 141.357 335.656 138.572 338.053C129.382 345.998 112.995 365.386 130.008 392.841C136.442 403.212 151.411 411.632 174.045 417.814"></path>
<path fill="white" d="M272.373 380.772H310.019L307.536 392.086H307.838C315.596 384.385 326.377 378.505 342.555 378.505C359.359 378.505 364.987 384.068 367.707 392.229C374.652 384.687 386.275 378.505 401.992 378.505C420.66 378.505 433.881 386.35 429.476 406.414L417.012 463.297H378.121L388.347 416.677C390.161 408.372 387.182 405.658 380.33 405.658C372.241 405.658 366.275 409.429 364.066 419.541L354.48 463.297H316.827L327.046 416.677C328.852 408.372 325.873 405.658 319.036 405.658C310.954 405.658 304.988 409.429 302.765 419.541L293.171 463.304H254.281L272.373 380.772Z"></path>
<path fill="white" d="M506.61 377.455C550.481 377.455 566.508 391.646 559.859 421.966C553.173 452.444 530.928 466.621 487.064 466.621C443.201 466.621 427.166 452.444 433.845 421.966C440.495 391.646 462.74 377.455 506.61 377.455M492.426 442.174C508.143 442.174 516.196 435.237 519.104 421.966C521.954 408.983 516.966 401.895 501.263 401.895C485.704 401.895 477.457 408.983 474.614 421.966C471.699 435.237 476.874 442.174 492.426 442.174Z"></path>
<path fill="white" d="M578.225 380.772H615.878L613.625 391.034H613.934C619.138 385.752 633.171 378.512 651.832 378.512C673.314 378.512 687.448 387.868 682.418 410.796L670.918 463.303H632.012L641.368 420.606C643.657 410.192 638.892 405.665 629.717 405.665C619.447 405.665 610.379 411.545 607.371 425.283L599.03 463.303H560.146L578.225 380.772Z"></path>
<path fill="white" d="M765.87 454.553H765.547C756.831 462.405 745.18 466.622 727.915 466.622C702.698 466.622 682.468 453.193 689.175 422.564C695.897 391.935 722.007 378.513 747.209 378.513C763.078 378.513 773.456 382.291 778.421 390.136H778.745L787.144 351.806H826.027L801.595 463.304H763.949L765.87 454.553ZM754.262 403.853C740.257 403.853 731.319 412.014 729.002 422.564C726.627 433.424 731.125 441.275 746.216 441.275C761.157 441.275 769.051 434.338 771.635 422.564C774.175 410.948 769.346 403.853 754.262 403.853"></path>
<path fill="white" d="M830.561 380.772H869.459L851.381 463.303H812.469L830.561 380.772Z"></path>
</svg>
