<svg xmlns="http://www.w3.org/2000/svg" fill="none" viewBox="0 0 1001 751" height="751" width="1001">
<path fill="white" d="M341.054 287.843C332.638 287.843 324.225 288.188 316.303 289.055C279.175 293.137 260.283 315.468 260.283 342.141C260.283 364.084 276.234 384.764 306.095 390.5L342.083 397.393C355.223 399.945 361.987 402.881 361.987 410.026C361.987 415.513 356.882 421.26 339.914 421.26C324.598 421.26 303.932 418.961 290.781 418.961C278.153 418.961 264.755 424.707 264.755 449.586C264.755 452.65 265.266 456.479 265.903 459.538C284.788 461.714 324.477 465.16 351.907 462.22C389.807 458.138 408.44 437.336 408.44 408.751C408.44 384.125 393.254 364.088 358.036 357.582L323.706 351.202C312.731 349.291 305.844 346.732 305.844 340.48C305.844 334.615 313.114 329.764 330.605 329.764C347.827 329.764 362.884 331.552 372.582 331.552C385.216 331.552 398.36 326.188 398.36 301.31C398.36 297.993 397.972 294.923 397.342 291.74C383.873 290.086 362.463 287.846 341.073 287.846H341.054V287.843ZM529.683 308.323L472.261 371.108L518.449 443.846C527.001 457.115 538.235 463.872 556.485 463.872C568.472 463.872 578.428 461.072 583.016 458.907L527.383 375.061L566.818 333.207L631.514 434.786L592.074 517.857C596.038 519.892 604.072 522.322 614.154 522.574C631.516 522.956 640.955 516.323 647.971 500.753L741 293.266C737.177 291.226 728.625 288.93 721.727 288.802C709.74 288.549 693.659 290.974 683.449 315.47L653.335 386.549L594.255 290.333C590.427 289.181 581.104 287.529 574.34 287.529C553.416 287.525 541.806 295.178 529.683 308.323ZM423.452 259.835V462.734C426.769 463.235 430.216 463.494 434.173 463.494C464.029 463.494 470.033 454.69 470.033 439.374V229.464C466.452 228.694 462.622 228.311 458.794 228.311C428.68 228.311 423.452 244.396 423.452 259.835Z"></path>
</svg>
