<svg xmlns="http://www.w3.org/2000/svg" fill="none" viewBox="0 0 1001 751" height="751" width="1001">
<path fill="white" d="M146.35 416.263C146.238 405.004 145.268 391.99 144.281 382.038C144.175 380.988 144.475 379.937 145.122 379.103C145.768 378.268 146.71 377.714 147.753 377.555L147.914 377.531C148.929 377.374 149.966 377.599 150.824 378.162C151.683 378.725 152.303 379.585 152.565 380.578C153.775 385.59 155.784 390.375 158.515 394.748C160.985 398.629 169.629 412.029 187.785 412.029C201.016 412.029 210.719 402.679 210.719 390.859C210.719 379.937 201.898 375.526 184.617 368.999C179.509 366.882 174.216 364.949 169.1 362.656C162.043 359.296 145.46 351.541 145.46 330.018C145.46 306.049 164.69 291.936 189.204 291.936C195.154 291.936 203.622 292.77 212.106 296.667C213.983 297.525 216.196 296.859 217.303 295.127L218.706 292.914C219.068 292.34 219.567 291.864 220.157 291.528C220.747 291.192 221.411 291.007 222.09 290.989C223.157 290.964 224.193 291.349 224.984 292.065C225.775 292.782 226.26 293.774 226.34 294.839C227.12 304.879 228.237 314.889 229.692 324.854C229.917 325.403 230.022 325.995 229.999 326.588C229.977 327.181 229.827 327.763 229.561 328.293C229.294 328.824 228.917 329.291 228.455 329.663C227.992 330.036 227.456 330.305 226.881 330.452C226.306 330.6 225.706 330.623 225.121 330.519C224.537 330.415 223.981 330.187 223.492 329.85C223.003 329.513 222.592 329.075 222.287 328.566C221.981 328.057 221.788 327.489 221.721 326.899C219.508 321.053 218.257 318.318 215.827 314.678C210.013 306.747 202.251 301.286 192.556 301.286C180.03 301.286 172.629 311.502 172.629 319.794C172.629 329.313 181.089 333.37 184.794 335.134C192.38 338.839 200.31 341.309 208.249 344.485C220.943 349.424 238.401 357.01 238.401 380.29C238.401 403.208 220.061 422.43 190.968 422.43C176.51 422.43 167.087 417.859 161.618 414.387C161.155 414.095 160.637 413.899 160.096 413.809C159.556 413.72 159.003 413.739 158.469 413.866C157.936 413.993 157.434 414.225 156.991 414.549C156.549 414.872 156.175 415.28 155.893 415.75L154.329 418.332C153.986 418.892 153.515 419.363 152.955 419.706C152.394 420.049 151.76 420.254 151.105 420.305L150.809 420.329C150.245 420.375 149.677 420.305 149.141 420.122C148.605 419.939 148.113 419.648 147.694 419.267C147.276 418.885 146.941 418.422 146.71 417.905C146.478 417.388 146.356 416.829 146.35 416.263M242.274 415.253C242.274 413.497 243.533 412.005 245.249 411.716C247.912 411.275 251.135 410.129 251.624 406.745C252.154 402.679 252.154 392.102 252.154 389.456C252.154 383.281 251.977 373.233 251.977 367.058C251.977 358.205 249.01 355.775 244.84 354.597C244.097 354.379 243.445 353.926 242.982 353.305C242.519 352.685 242.271 351.931 242.274 351.156V350.739C242.274 348.983 243.541 347.508 245.265 347.211C254.046 345.671 267.326 341.919 274.294 339.513C274.743 339.357 275.219 339.293 275.693 339.323C276.167 339.353 276.63 339.478 277.056 339.689C277.481 339.9 277.86 340.194 278.171 340.553C278.482 340.913 278.718 341.331 278.865 341.782C279.009 342.247 279.146 342.688 279.266 343.145C279.417 343.674 279.689 344.161 280.058 344.568C280.428 344.975 280.886 345.292 281.398 345.493C281.91 345.695 282.461 345.776 283.009 345.73C283.557 345.685 284.087 345.514 284.559 345.23C291.214 341.365 297.525 338.494 306.82 338.494C313.523 338.494 320.227 340.259 325.696 344.132C334.285 350.098 335.72 359.208 336.442 368.855V384.339C336.442 386.986 336.097 400.738 336.097 403.745C336.097 408.204 337.308 410.923 343.138 412.005C343.945 412.171 344.67 412.613 345.187 413.256C345.703 413.898 345.98 414.701 345.969 415.525C345.97 416.015 345.87 416.5 345.676 416.95C345.482 417.4 345.197 417.805 344.84 418.14C344.483 418.476 344.061 418.734 343.6 418.899C343.139 419.065 342.648 419.134 342.16 419.102C337.164 418.765 329.618 418.549 317.22 418.549C310.228 418.549 306.37 418.741 302.786 419.054C302.29 419.098 301.791 419.039 301.319 418.88C300.848 418.721 300.415 418.466 300.047 418.13C299.68 417.794 299.386 417.386 299.186 416.93C298.985 416.475 298.881 415.983 298.881 415.485V414.732C298.881 413.12 299.963 411.692 301.527 411.283C306.683 409.888 307.325 407.426 307.172 396.689L306.82 369.175C306.643 360.715 306.29 351.012 294.823 351.012C290.052 351.012 286.355 352.76 282.794 355.447C282.325 355.791 281.946 356.243 281.689 356.766C281.433 357.288 281.305 357.864 281.319 358.446C281.6 367.283 281.6 392.366 281.6 400.209C281.6 408.3 283.003 410.538 287.309 411.676C288.849 412.077 289.891 413.521 289.891 415.116V415.582C289.892 416.072 289.793 416.557 289.599 417.007C289.405 417.457 289.12 417.863 288.763 418.199C288.406 418.535 287.984 418.794 287.523 418.96C287.062 419.127 286.572 419.197 286.082 419.166C280.092 418.789 272.394 418.549 257.967 418.549C252.418 418.549 249.195 418.725 246.187 419.014C245.69 419.061 245.189 419.003 244.715 418.845C244.242 418.686 243.806 418.43 243.438 418.093C243.069 417.756 242.775 417.346 242.575 416.888C242.374 416.431 242.272 415.937 242.274 415.437V415.253V415.253ZM395.887 385.887C395.884 385.341 395.756 384.802 395.513 384.313C395.271 383.824 394.919 383.397 394.486 383.064C394.053 382.731 393.549 382.502 393.014 382.394C392.478 382.285 391.925 382.301 391.397 382.439C385.446 383.946 377.548 387.419 377.548 396.689C377.548 401.452 380.017 406.737 386.721 406.737C390.138 406.737 392.174 405.702 394.315 404.291C394.801 403.964 395.199 403.522 395.473 403.004C395.747 402.487 395.889 401.909 395.887 401.324V385.887ZM436.64 406.288C437.029 406.6 437.349 406.99 437.579 407.433C437.809 407.877 437.944 408.363 437.974 408.861C438.005 409.359 437.932 409.859 437.759 410.327C437.586 410.795 437.317 411.222 436.969 411.58C428.493 420.16 420.089 421.909 415.462 421.909C410.702 421.851 406.079 420.309 402.238 417.498C401.014 416.514 399.915 415.383 398.967 414.13C398.426 413.413 397.632 412.93 396.747 412.778C395.862 412.626 394.952 412.817 394.203 413.312C389.352 416.464 379.336 422.077 368.205 422.077C351.975 422.077 348.102 411.147 348.102 404.628C348.102 384.476 379.111 376.048 393.153 373.53C393.971 373.38 394.711 372.948 395.244 372.309C395.778 371.671 396.07 370.865 396.072 370.033C396.088 364.58 396.096 358.165 395.358 355.952C393.241 349.777 386.192 349.777 385.31 349.777C379.488 349.777 376.313 353.306 375.254 357.187C374.725 359.48 374.725 361.95 374.196 364.244C372.784 370.234 367.845 372.527 363.442 372.527C357.973 372.527 352.857 368.999 352.857 362.479C352.857 349.424 377.018 338.839 398.886 338.839C414.05 338.839 425.157 343.779 425.157 358.422L424.812 397.747C424.636 400.746 424.451 407.611 429.038 407.611C430.177 407.611 431.251 407.017 432.262 406.231C432.893 405.75 433.667 405.494 434.461 405.505C435.254 405.515 436.021 405.79 436.64 406.288V406.288Z" clip-rule="evenodd" fill-rule="evenodd"></path>
<path fill="white" d="M486.27 409.913C499.317 409.913 504.072 391.749 504.072 379.761C504.072 367.059 498.78 350.131 485.741 350.131C473.921 350.131 473.921 362.303 473.921 366C473.921 370.058 474.105 389.809 474.105 394.219C474.105 399.865 474.105 409.913 486.27 409.913V409.913ZM444.827 368.117C445.148 354.645 443.224 351.47 437.209 349.81C436.499 349.599 435.877 349.162 435.437 348.566C434.997 347.97 434.764 347.247 434.772 346.506V345.624C434.768 344.795 435.071 343.994 435.621 343.374C436.171 342.754 436.931 342.359 437.755 342.264C449.663 340.989 462.261 337.741 468.46 336.057C468.902 335.935 469.366 335.905 469.821 335.969C470.275 336.034 470.712 336.191 471.103 336.432C471.495 336.673 471.832 336.992 472.095 337.369C472.357 337.746 472.539 338.173 472.63 338.623C472.814 339.441 472.998 340.444 473.223 341.703C473.315 342.248 473.54 342.762 473.878 343.199C474.215 343.637 474.655 343.986 475.159 344.214C475.662 344.442 476.214 344.542 476.766 344.507C477.318 344.472 477.852 344.302 478.323 344.012C485.244 339.577 492.068 337.26 500.728 337.26C522.067 337.26 535.29 355.6 535.29 374.998C535.29 401.621 516.422 420.145 494.385 420.145C487.625 420.145 482.701 418.421 479.293 416.584C478.779 416.302 478.201 416.159 477.614 416.168C477.028 416.176 476.454 416.338 475.948 416.635C475.443 416.933 475.024 417.356 474.732 417.865C474.439 418.373 474.284 418.949 474.281 419.535V439.888C474.281 446.712 474.698 451.973 481.996 453.207C482.761 453.359 483.449 453.775 483.94 454.381C484.431 454.988 484.693 455.747 484.682 456.527C484.682 456.979 484.592 457.425 484.417 457.841C484.242 458.257 483.986 458.634 483.663 458.949C483.34 459.264 482.957 459.512 482.538 459.677C482.118 459.842 481.669 459.922 481.218 459.911C472.5 459.67 463.78 459.523 455.06 459.47C448.428 459.47 444.138 459.591 438.492 459.831C438.036 459.853 437.58 459.782 437.152 459.623C436.724 459.463 436.332 459.219 436.001 458.904C435.67 458.589 435.406 458.211 435.225 457.791C435.044 457.372 434.95 456.92 434.948 456.463V456.022C434.948 454.386 436.087 452.919 437.707 452.646C444.266 451.523 444.827 447.915 444.827 442.887C445.004 439.535 445.004 429.134 445.004 425.253L444.827 368.117V368.117ZM627.582 419.086C620.421 418.557 615.738 418.557 596.981 418.557C586.717 418.557 582.619 418.677 576.613 419.102C575.59 419.151 574.586 418.808 573.807 418.143C573.028 417.478 572.532 416.541 572.419 415.523C572.307 414.505 572.587 413.483 573.202 412.664C573.817 411.845 574.721 411.291 575.731 411.115C585.618 409.728 586.043 406.16 586.043 383.811V327.733C585.867 314.333 585.698 310.276 584.455 307.806C583.124 304.679 581.031 303.941 575.642 303.043C574.706 302.887 573.855 302.404 573.242 301.68C572.628 300.956 572.291 300.038 572.29 299.089C572.29 296.619 574.151 294.815 576.412 294.879C586.324 295.144 596.243 295.28 606.147 295.28C616.09 295.28 622.466 295.064 627.935 294.879C628.995 294.792 630.046 295.13 630.858 295.818C631.669 296.506 632.174 297.488 632.261 298.548C632.348 299.608 632.011 300.66 631.323 301.471C630.635 302.282 629.652 302.787 628.592 302.874C618.143 304.181 618.143 307.349 618.143 330.732L618.32 385.398C618.673 403.922 618.849 404.981 620.966 407.796C622.474 409.576 624.839 410.514 628.464 411.003C629.417 411.142 630.289 411.62 630.919 412.348C631.55 413.077 631.896 414.009 631.896 414.973C631.907 415.533 631.802 416.09 631.586 416.608C631.371 417.125 631.05 417.592 630.644 417.979C630.239 418.366 629.757 418.664 629.23 418.855C628.702 419.045 628.141 419.124 627.582 419.086V419.086ZM633.179 415.253C633.179 413.497 634.438 412.006 636.154 411.717C638.816 411.276 642.04 410.129 642.529 406.745C643.059 402.679 643.059 392.102 643.059 389.456C643.059 383.281 642.882 373.233 642.882 367.059C642.882 358.206 639.915 355.776 635.745 354.597C635.002 354.38 634.35 353.927 633.887 353.306C633.424 352.685 633.176 351.931 633.179 351.157V350.74C633.179 348.984 634.438 347.508 636.17 347.212C644.951 345.672 658.223 341.919 665.199 339.513C665.648 339.358 666.124 339.293 666.598 339.323C667.072 339.354 667.535 339.478 667.961 339.689C668.386 339.901 668.765 340.194 669.076 340.554C669.387 340.913 669.623 341.331 669.77 341.783C669.914 342.248 670.051 342.689 670.171 343.146C670.323 343.673 670.594 344.159 670.963 344.565C671.332 344.971 671.79 345.288 672.3 345.489C672.811 345.69 673.361 345.772 673.908 345.727C674.455 345.682 674.984 345.513 675.456 345.231C682.111 341.366 688.422 338.495 697.724 338.495C704.42 338.495 711.124 340.259 716.593 344.132C725.19 350.098 726.633 359.208 727.339 368.855C727.355 368.951 727.355 369.047 727.355 369.144V384.34C727.355 386.986 727.002 400.739 727.002 403.746C727.002 408.205 728.205 410.923 734.043 412.006C734.85 412.172 735.575 412.614 736.092 413.256C736.608 413.899 736.885 414.702 736.874 415.526C736.875 416.017 736.775 416.502 736.58 416.953C736.386 417.403 736.1 417.808 735.742 418.144C735.384 418.479 734.961 418.738 734.499 418.902C734.037 419.067 733.546 419.135 733.056 419.102C728.069 418.766 720.515 418.549 708.125 418.549C701.125 418.549 697.275 418.742 693.691 419.054C693.195 419.099 692.696 419.04 692.224 418.881C691.753 418.722 691.32 418.466 690.952 418.13C690.585 417.795 690.291 417.386 690.091 416.931C689.89 416.476 689.786 415.983 689.786 415.486V414.732C689.786 413.12 690.868 411.693 692.432 411.284C697.588 409.889 698.23 407.427 698.077 396.689L697.724 369.176C697.54 360.716 697.195 351.013 685.728 351.013C680.957 351.013 677.252 352.761 673.691 355.447C673.224 355.792 672.846 356.245 672.591 356.767C672.335 357.289 672.209 357.865 672.224 358.446C672.505 367.283 672.505 392.367 672.505 400.21C672.505 408.301 673.9 410.538 678.214 411.677C679.754 412.078 680.796 413.521 680.796 415.117V415.582C680.797 416.072 680.698 416.558 680.504 417.008C680.31 417.458 680.025 417.864 679.668 418.2C679.311 418.535 678.889 418.795 678.428 418.961C677.967 419.127 677.476 419.197 676.987 419.167C670.997 418.79 663.299 418.549 648.872 418.549C643.323 418.549 640.1 418.726 637.092 419.014C636.595 419.061 636.094 419.004 635.62 418.845C635.147 418.687 634.711 418.431 634.343 418.094C633.974 417.757 633.68 417.346 633.48 416.889C633.279 416.431 633.177 415.937 633.179 415.438V415.253V415.253ZM816.631 399.905C818.844 401.509 819.149 404.748 817.208 406.673C807.485 416.329 794.369 421.797 780.666 421.909C755.446 421.909 736.93 404.444 736.93 380.459C736.93 355.247 758.445 339.024 784.723 339.024C802.004 339.024 818.403 346.602 818.403 359.304C818.403 365.295 813.295 370.411 807.297 370.411C804.651 370.411 801.475 369.176 799.534 367.235C797.947 365.824 797.594 364.942 794.242 357.364C792.654 354.012 789.126 348.014 783.665 348.014C773.432 348.014 770.61 365.471 770.61 374.116C770.61 394.043 781.901 407.443 794.242 407.443C800.801 407.443 806.23 404.428 811.05 400.194C811.809 399.519 812.776 399.123 813.79 399.071C814.804 399.018 815.806 399.312 816.631 399.905M840.985 390.162C849.63 390.162 857.023 397.042 857.023 406.208C857.023 415.205 849.629 422.086 841.161 422.086C836.998 422.128 832.988 420.518 830.012 417.607C827.035 414.696 825.334 410.724 825.284 406.561C825.284 395.631 833.752 390.162 840.985 390.162Z" clip-rule="evenodd" fill-rule="evenodd"></path>
</svg>
