<svg xmlns="http://www.w3.org/2000/svg" fill="none" viewBox="0 0 1001 751" height="751" width="1001">
<path fill="white" d="M500.642 165.981C384.941 165.981 291.173 259.75 291.173 375.45C291.173 491.15 384.941 584.918 500.642 584.918C616.342 584.918 710.11 491.108 710.11 375.45C710.11 259.791 616.3 165.981 500.642 165.981ZM500.558 191.814C602.126 191.814 684.445 274.133 684.445 375.702C684.445 477.27 602.126 559.589 500.558 559.589C398.99 559.589 316.67 477.228 316.67 375.702C316.67 274.175 398.99 191.814 500.558 191.814Z"></path>
<path fill="white" d="M396.222 303.866V446.489H454.261C480.638 446.489 500.893 430.008 500.893 403.924C500.893 380.943 482.945 372.137 482.945 372.137C482.945 372.137 496.742 363.33 496.742 343.788C496.742 321.059 478.793 303.866 452.332 303.866H396.222ZM428.345 331.711H445.496C457.7 331.711 462.983 337.959 462.983 345.717C462.983 354.105 456.945 359.43 446.293 359.43H428.345V331.711V331.711ZM428.345 387.989H445.496C457.7 387.989 462.983 394.237 462.983 401.995C462.983 410.382 456.945 415.708 446.293 415.708H428.345V387.989V387.989Z"></path>
<path fill="white" d="M543.961 446.028V336.576H511.88V303.614H611.687V336.576H578.223V446.028H543.961Z"></path>
</svg>
