<svg xmlns="http://www.w3.org/2000/svg" fill="none" viewBox="0 0 1001 751" height="751" width="1001">
<path fill="white" d="M319.518 274.308C262.96 274.308 220.283 317.679 220.283 375.278C220.283 433.57 262.964 476.248 321.951 476.248C351.097 476.248 378.506 463.412 397.243 440.858L379.202 424.553C364.976 441.555 344.157 451.612 321.951 451.959C277.884 451.959 245.615 419.691 245.615 375.278C245.615 373.912 245.643 372.556 245.704 371.212C247.595 329.531 278.5 298.597 319.172 298.597C336.781 298.597 353.591 304.707 367.282 315.533C369.238 317.079 371.132 318.724 372.954 320.459L389.957 303.802C371.221 284.718 345.888 273.961 319.518 274.308H319.518ZM703.275 274.654C646.718 274.654 604.041 318.025 604.041 375.624C604.041 433.916 646.722 476.6 705.708 476.6C734.855 476.6 762.263 463.758 781 441.204L763.305 424.553C749.079 441.555 728.261 451.612 706.054 451.959C661.988 451.959 629.718 419.691 629.718 375.278C629.718 331.559 661.291 298.597 703.275 298.597C720.885 298.597 737.701 304.707 751.392 315.532C753.347 317.079 755.235 318.724 757.057 320.459L774.06 303.802C755.324 285.065 729.993 274.307 703.275 274.654V274.654ZM416.326 277.087L493.353 473.13H511.054L588.081 277.087H561.712L502.027 429.758L442.695 277.087H416.326Z"></path>
</svg>
