<svg xmlns="http://www.w3.org/2000/svg" fill="none" viewBox="0 0 1001 751" height="751" width="1001">
<path fill="white" d="M373.857 392.661C374.291 391.797 375.008 390.363 375.292 389.65L392.788 347.195L409.997 390.075C410.285 390.792 410.856 391.939 411.29 392.94L409.142 393.374C404.262 394.667 398.815 395.522 393.222 395.522C387.625 395.522 382.465 394.809 377.014 393.374C376.009 393.09 374.574 392.661 373.857 392.661ZM195.884 327.98C215.387 327.98 229.154 331.996 237.759 339.596C248.086 348.634 253.249 360.533 253.249 375.448C253.249 389.654 248.232 401.407 238.33 410.587C229.726 418.762 215.674 423.062 195.88 423.062H189.573V327.98H195.884ZM798.225 340.167C807.981 349.63 812.711 361.534 812.711 375.444C812.711 389.211 807.835 400.973 798.225 410.725C788.62 420.334 777.004 425.21 763.378 425.21C735.989 425.21 714.188 402.696 714.188 375.444C714.188 361.68 719.068 349.776 728.677 340.021C738.141 330.415 749.894 325.682 763.378 325.682C776.863 325.682 788.474 330.557 798.225 340.167ZM567.183 348.488L584.533 333.569C569.623 313.636 549.686 303.743 526.167 303.743C486.156 303.743 453.882 335.721 453.882 375.736C453.882 414.887 486.01 447.157 525.166 447.157C535.059 447.157 544.527 445.005 553.703 440.846C562.595 436.826 570.34 431.237 576.651 423.925C582.673 417.19 586.548 409.44 588.842 400.977C590.711 393.945 591.853 385.345 591.282 375.018L590.99 370.856H528.465V392.798H566.895C565.894 401.403 561.444 408.86 553.703 415.029C545.244 421.915 535.635 425.21 524.878 425.21C512.399 425.21 501.213 420.046 490.886 409.87C481.568 400.406 476.835 389.07 476.835 375.882C476.835 361.968 481.71 349.922 491.749 339.879C501.213 330.274 512.687 325.682 525.883 325.682C542.804 325.682 556.143 333.427 567.183 348.488ZM420.186 414.604L432.953 445.005H458.195L398.957 305.608H387.487L326.677 445.005H351.777L365.115 414.024C365.394 413.169 365.545 412.589 365.686 412.018C366.258 412.301 367.121 412.589 368.118 413.018C375.579 415.888 384.472 417.465 393.222 417.465C401.826 417.465 410.289 415.751 415.307 414.019C417.893 413.165 418.752 412.735 419.465 412.301C419.611 412.877 420.036 414.174 420.186 414.604ZM195.166 445.005C220.692 445.005 240.341 439.27 253.537 427.366C268.594 413.886 276.197 396.677 276.197 375.594C276.197 353.651 268.452 336.013 252.962 322.816C239.911 311.63 220.55 306.033 195.454 306.033H165.766V445.005H195.166ZM317.638 306.033H294.836V445.005H317.638V306.033ZM628.999 380.177H677.609V358.385H628.999V327.98H681.918V306.033H606.188V445.005H682.055V423.062H628.994V380.177H628.999ZM712.461 324.818C698.268 338.732 691.244 355.803 691.244 375.59C691.244 415.596 723.509 447.153 763.378 447.153C803.389 447.153 835.517 415.746 835.517 375.59C835.517 355.941 828.347 339.166 814.433 324.964C800.373 310.771 783.311 303.743 763.374 303.743C743.588 303.743 726.521 310.771 712.461 324.818Z"></path>
</svg>
