<svg xmlns="http://www.w3.org/2000/svg" fill="none" viewBox="0 0 1001 751" height="751" width="1001">
<path fill="white" d="M331.627 432.215H310.66V453.182H331.627V432.215Z"></path>
<path fill="white" d="M216.052 405.111C286.113 405.111 307.08 382.098 307.08 352.438C307.08 322.777 286.113 299.764 216.052 299.764C145.481 299.764 125.025 322.777 125.025 352.438C125.025 382.098 145.481 405.111 216.052 405.111ZM166.959 352.438C166.959 330.448 177.187 312.038 216.052 312.038C254.407 312.038 265.146 330.448 265.146 352.438C265.146 374.427 254.918 392.838 216.052 392.838C177.187 392.838 166.959 374.427 166.959 352.438"></path>
<path fill="white" d="M603.176 406.134C646.133 406.134 669.145 392.838 669.145 370.336C669.145 347.835 646.133 334.539 603.176 334.539C560.219 334.539 537.207 347.835 537.207 370.336C537.207 392.838 560.219 406.134 603.176 406.134ZM574.538 370.336C574.538 357.552 578.118 345.79 603.687 345.79C628.746 345.79 632.837 357.552 632.837 370.336C632.837 383.121 629.257 394.883 603.687 394.883C578.118 394.883 574.538 383.121 574.538 370.336Z"></path>
<path fill="white" d="M446.178 362.665C446.178 352.438 455.383 344.255 474.816 344.255C493.738 344.255 497.317 351.415 497.317 358.063H534.649C534.649 345.278 522.887 333.005 477.884 333.005C436.973 333.005 416.518 343.744 410.892 357.551C365.89 357.551 349.525 341.187 349.525 327.379C349.525 317.152 358.73 308.969 378.163 308.969C397.085 308.969 400.664 316.129 400.664 322.777H437.996C437.996 309.992 426.234 297.719 381.232 297.719C332.649 297.719 312.705 307.947 312.705 335.562V339.141V403.577H347.48V363.688C360.265 367.268 376.118 368.802 392.994 368.802C398.619 368.802 404.244 368.802 409.869 368.291C411.915 394.372 446.178 404.599 490.158 404.599C506.011 404.599 520.841 403.577 534.137 401.531V391.815C526.978 392.837 518.796 393.349 509.079 393.349C462.543 392.837 446.178 376.473 446.178 362.665Z"></path>
<path fill="white" d="M678.861 361.131V362.665V361.131ZM834.324 334.028C810.289 334.028 796.481 342.721 791.878 347.835H791.367C786.765 338.63 771.423 334.028 753.524 334.028C728.977 334.028 718.238 341.698 714.147 346.301H713.636V336.073H678.861H663.008V347.324C672.724 347.324 678.861 354.483 678.861 361.643V363.688V404.6H713.636V374.939C713.636 364.2 723.863 349.369 743.808 349.369C756.081 349.369 759.149 351.415 759.149 365.222V403.577H793.924V373.916C793.924 363.177 804.152 348.347 824.096 348.347C836.369 348.347 839.438 350.392 839.438 364.2V403.577H874.212V356.529C875.235 340.676 856.314 334.028 834.324 334.028"></path>
<path fill="white" d="M876.258 432.215H493.226V453.182H876.258V432.215Z"></path>
<path fill="white" d="M531.58 432.215H471.236V453.182H531.58V432.215Z"></path>
<path fill="white" d="M470.725 432.215H425.723V453.182H470.725V432.215Z"></path>
<path fill="white" d="M425.723 432.215H396.062V453.182H425.723V432.215Z"></path>
<path fill="white" d="M396.574 432.215H379.698V453.182H396.574V432.215Z"></path>
<path fill="white" d="M380.209 432.215H330.093V453.182H380.209V432.215Z"></path>
<path fill="white" d="M310.659 432.215H216.563V453.182H310.659V432.215Z"></path>
<path fill="white" d="M220.655 432.215H126.559V453.182H220.655V432.215Z"></path>
</svg>
