<svg xmlns="http://www.w3.org/2000/svg" fill="none" viewBox="0 0 1001 751" height="751" width="1001">
<path fill="white" d="M304.387 403.472H323.053C330.336 403.472 333.105 405.985 333.105 412.14C333.105 418.067 330.334 420.577 323.053 420.577H304.387V403.472ZM275.469 465.729H304.388V440.413H335.363C355.871 440.413 363.255 428.332 363.255 412.713C363.255 394.582 355.663 384.322 335.154 384.322H275.469V465.729ZM372.792 384.322H450.624V404.157H401.711V415.103H447.142V434.946H401.711V445.89H450.624V465.729H372.792V384.322ZM491.647 403.472H510.312C517.593 403.472 520.364 405.985 520.364 412.14C520.364 418.067 517.593 420.577 510.312 420.577H491.647V403.472ZM462.728 465.729H491.647V440.413H522.616C543.13 440.413 550.515 428.332 550.515 412.713C550.515 394.582 542.923 384.322 522.411 384.322H462.728V465.729ZM578.507 431.182C564.357 428.783 558.516 419.663 558.516 408.264C558.516 387.168 577.078 381.472 600.864 381.472C633.471 381.472 646.908 390.932 647.935 408.151H614.297C614.297 404.843 612.553 402.787 609.891 401.648C607.326 400.397 604.047 399.942 600.864 399.942C592.25 399.942 589.279 402.333 589.279 405.757C589.279 408.033 590.198 409.521 593.07 409.974L627.628 415.673C642.193 418.067 651.218 425.592 651.218 439.385C651.218 459.23 636.655 468.58 604.145 468.58C581.893 468.58 557.587 465.16 557.486 441.216H592.353C592.451 443.949 593.378 445.773 595.432 447.028C597.579 448.17 600.76 448.741 605.271 448.741C614.294 448.741 616.759 446.002 616.759 442.125C616.759 439.731 615.423 437.338 611.534 436.657L578.507 431.182ZM660.649 384.322H689.566V465.729H660.649V384.322ZM796.739 434.032C794.893 444.75 791.607 453.416 784.428 459.343C777.356 465.272 766.277 468.58 748.642 468.58C731.106 468.58 698.597 467.208 698.597 425.028C698.597 382.839 731.106 381.47 748.642 381.47C766.071 381.47 792.942 383.976 796.739 416.247H764.128C763.307 410.427 759.815 401.991 748.642 401.991C736.843 401.991 729.358 408.49 729.358 425.026C729.358 441.559 736.641 448.053 747.203 448.053C756.332 448.053 761.768 443.835 764.127 434.031H796.739V434.032ZM834.577 425.029C834.577 408.491 842.066 401.994 853.861 401.994C865.652 401.994 873.142 408.492 873.142 425.029C873.142 441.562 865.652 448.056 853.861 448.056C842.066 448.055 834.577 441.56 834.577 425.029V425.029ZM803.809 425.029C803.809 467.208 836.319 468.581 853.86 468.581C871.397 468.581 903.906 467.21 903.906 425.029C903.906 382.84 871.397 381.472 853.86 381.472C836.319 381.472 803.809 382.839 803.809 425.029ZM231.772 385.129C233.639 346.073 199.957 302.089 154.04 296.653L154.118 296.119C199.386 296.119 234.089 338.026 234.089 371.087C234.045 377.97 233.502 382.234 232.532 385.33L231.772 385.129ZM229.029 390.094C226.017 393.774 222.229 397.479 217.791 400.997C209.627 354.042 175.124 312.984 150.729 301L150.207 301.364C174.74 321.498 204 360.602 215.379 402.839C209.575 407.102 203.305 410.693 196.691 413.541C173.541 387.141 151.958 336.226 145.003 303.918L144.295 304.13C144.452 335.492 166.719 388.732 193.872 414.711C187.644 417.175 181.17 418.964 174.56 420.046C148.532 409.735 130.004 376.709 130.004 342.877C130.004 320.792 136.738 307.13 138.041 304.334L137.486 304.114C135.91 306.498 126.045 320.153 126.045 343.997C126.045 382.238 144.905 411.468 169.943 420.673C160.989 421.657 151.937 421.233 143.115 419.413L142.928 419.996C145.607 420.982 154.694 424.797 168.556 424.797C199.911 424.797 221.107 405.315 229.64 390.507L229.029 390.094Z" clip-rule="evenodd" fill-rule="evenodd"></path>
<path fill="white" d="M165.421 282.319C141.652 282.319 113.781 299.474 113.781 315.155C113.781 321.22 119.33 326.345 130.814 326.345C157.473 326.345 182.241 308.029 182.241 293.787C182.241 286.292 175.044 282.319 165.421 282.319V282.319ZM174.911 293.344C174.911 305.349 151.857 320.024 132.586 320.024C124.072 320.024 119.471 316.673 119.471 311.144C119.471 298.967 142.787 284.541 160.863 284.541C172.648 284.541 174.911 290.538 174.911 293.344V293.344Z" clip-rule="evenodd" fill-rule="evenodd"></path>
<path fill="white" d="M104.311 322.415C103.643 323.571 100.968 328.81 100.968 334.178C100.968 344.134 111.027 353.377 129.529 353.377C165.123 353.377 206.246 327.177 206.246 302.857C206.246 291.94 195.912 286.005 188.737 284.778L188.602 285.204C190.834 285.91 199.009 289.71 199.009 299.435C199.009 318.812 162.701 345.215 126.534 345.215C112.688 345.215 103.965 338.381 103.965 328.425C103.965 325.276 104.621 323.201 104.795 322.6L104.311 322.415Z" clip-rule="evenodd" fill-rule="evenodd"></path>
<path fill="white" d="M220.921 304.675C221.897 305.416 227.76 310.302 227.76 319.542C227.76 351.047 178.397 382.026 134.757 382.026C108.732 382.026 96.8688 369.176 97.3941 357.766H97.8606C98.8804 363.692 107.33 374.295 130.108 374.295C173.802 374.295 222.589 342.239 222.589 314.154C222.589 309.337 221.281 306.335 220.541 305L220.921 304.675Z" clip-rule="evenodd" fill-rule="evenodd"></path>
<path fill="white" d="M237.42 334.087C237.624 334.758 238.688 337.774 238.688 342.498C238.688 377.543 188.733 407.546 145.286 407.546C122.924 407.546 111.247 396.684 108.781 392.273L109.179 391.979C115.367 397.39 127.554 401.502 141.777 401.502C180.148 401.502 237.404 372.309 236.893 334.214L237.42 334.087Z" clip-rule="evenodd" fill-rule="evenodd"></path>
</svg>
