<svg xmlns="http://www.w3.org/2000/svg" fill="none" viewBox="0 0 1001 751" height="751" width="1001">
<path fill="white" d="M456.632 338.545C451.395 335.63 443.616 334.202 432.842 334.202C418.104 334.216 404.422 337.322 399.251 339.278C398.079 339.658 396.834 340.684 396.805 342.427V342.823L398.269 350.264L398.299 350.411C398.753 351.913 399.998 352.608 401.119 352.608H401.141C401.507 352.579 401.785 352.506 402.049 352.44L404.503 351.854C410.926 350.243 420.631 347.767 431.457 347.767C438.035 347.767 442.444 348.353 445.411 349.613C450.215 351.466 450.245 354.623 450.296 359.845V367.66C449.747 367.646 448.816 367.638 447.388 367.638C442.078 367.638 431.64 367.895 421.386 369.557C405.726 372.004 392.769 375.805 392.857 397.72C392.857 425.539 418.273 425.583 430.476 425.612C438.752 425.598 446.407 424.353 451.409 423.313C462.799 420.624 465.714 416.955 465.56 405.463V359.193C465.56 352.132 465.59 343.357 456.624 338.538L456.632 338.545ZM450.369 409.982C444.304 411.981 437.668 412.985 430.637 412.985V413.644V412.985C419.401 412.897 408.443 411.593 408.421 397.054C408.495 385.481 414.574 384.111 422.265 382.368L422.8 382.244C429.641 380.757 446.839 380.486 450.377 380.442V409.982H450.369ZM592.539 359.186V405.433C592.686 416.933 589.778 420.595 578.381 423.283C573.4 424.331 565.746 425.576 557.455 425.583C545.252 425.554 519.843 425.51 519.836 397.699C519.74 375.798 532.698 371.989 548.358 369.543C558.612 367.873 569.057 367.616 574.36 367.616C575.795 367.616 576.718 367.631 577.29 367.638V359.83C577.231 354.608 577.194 351.458 572.397 349.605C569.438 348.331 565.014 347.759 558.436 347.759C547.596 347.759 537.898 350.221 531.482 351.847L529.035 352.433C528.772 352.506 528.486 352.579 528.12 352.579C526.992 352.579 525.754 351.905 525.292 350.382L525.256 350.25L523.791 342.808V342.42C523.82 340.677 525.065 339.637 526.23 339.27C531.416 337.315 545.083 334.202 559.828 334.194C570.595 334.194 578.381 335.623 583.611 338.545C592.569 343.357 592.547 352.132 592.532 359.186H592.539ZM577.378 380.442C573.818 380.478 556.649 380.757 549.793 382.244L549.244 382.368C541.553 384.111 535.474 385.481 535.4 397.054C535.415 411.593 546.387 412.904 557.623 412.985V413.644V412.985C564.655 412.985 571.291 411.981 577.356 409.982V380.442H577.378ZM822.583 334.194C787.205 334.253 784.202 357.853 784.165 379.973C784.202 402.02 787.197 425.532 822.583 425.583C857.938 425.525 860.949 402.071 861 379.966C860.963 356.82 857.968 334.246 822.583 334.187V334.194ZM822.583 412.677C801.122 412.575 800.045 401.397 799.898 379.98C800.045 358.461 801.122 347.217 822.575 347.122C844.036 347.217 845.12 358.461 845.267 379.973C845.12 401.39 844.036 412.567 822.583 412.677V412.677ZM759.078 422.331L758.163 422.565C753.219 423.84 746.444 425.583 734.563 425.583H734.534C701.778 425.525 695.362 408.759 695.325 379.805C695.355 346.61 705.726 334.246 733.56 334.202C743.389 334.202 750.164 335.498 755.021 336.692L754.991 309.943C754.955 308.771 755.467 307.233 758.2 306.705L766.901 304.449H767.377C769.377 304.5 770.087 306.302 770.087 307.841V408.334C770.219 414.692 769.479 420.126 759.078 422.346V422.331ZM754.999 349.554C752.098 348.807 743.99 346.946 734.856 346.946C718.097 347.115 711.051 351.737 710.89 379.98C711.088 411 720.178 412.685 735.01 412.831V413.49V412.831C744.239 412.831 752.164 410.875 754.991 410.099V349.554H754.999ZM676.853 423.481H669.089C666.986 423.481 665.426 421.884 665.426 419.767V360.145C665.28 350.067 662.299 347.254 651.605 347.108C639.505 347.108 627.251 350.199 623.215 351.312V419.775C623.215 421.921 621.75 423.488 619.721 423.488H611.774C609.686 423.488 608.111 421.892 608.111 419.782V352.909C608.002 346.727 608.566 342.449 617.245 339.593C625.544 336.685 641.416 334.216 651.927 334.209C671.923 334.238 680.456 341.57 680.493 358.717V419.789C680.493 421.899 678.918 423.496 676.831 423.496L676.853 423.481ZM500.674 425.092C505.157 424.997 508.453 424.111 509.757 422.631C510.211 422.119 510.416 421.503 510.365 420.91C510.336 420.412 510.336 420.412 509.12 414.582L509.083 414.435C508.819 412.919 507.765 412.223 506.871 412.223H506.739C506.739 412.223 505.619 412.201 504.505 412.201C501.312 412.099 498.668 411.615 498.616 406.898V307.826C498.616 306.185 497.635 304.493 495.76 304.457H495.196L486.479 306.727C485 306.874 483.447 307.95 483.52 309.935V407.206C483.542 418.72 489.636 425.078 500.674 425.1V425.092ZM377.636 423.481H315.216C313.129 423.481 311.554 421.884 311.554 419.767V412.033C311.517 410.128 312.11 409.301 313.268 407.843L362.95 349.21H314.264C312.176 349.21 310.602 347.598 310.602 345.489V340.01C310.602 337.886 312.184 336.297 314.264 336.297H377.329C379.401 336.297 380.969 337.893 380.976 340.01V347.906C381.013 349.334 380.537 350.543 379.401 351.817L329.594 410.575H377.643C379.724 410.575 381.291 412.172 381.306 414.289V419.782C381.291 421.884 379.724 423.481 377.643 423.481H377.636Z" clip-rule="evenodd" fill-rule="evenodd"></path>
<path fill="white" d="M169.2 448.055C163.905 448.055 160.96 446.795 159.385 445.88C157.21 444.605 153.204 441.36 149.607 431.765C143.843 416.376 140.429 397.581 140.283 375.505V375.432C140.429 353.312 143.843 334.524 149.607 319.128C153.196 309.54 157.203 306.288 159.4 305.021C160.953 304.09 163.89 302.845 169.178 302.845C171.2 302.845 173.573 303.028 176.327 303.475C192.339 306.112 210.072 312.506 228.991 323.42L229.05 323.449C247.815 334.627 262.142 347.012 272.389 359.779C278.784 367.748 279.545 372.89 279.545 375.439C279.545 377.988 278.784 383.145 272.389 391.099C262.135 403.866 247.815 416.259 229.05 427.429L228.976 427.473C210.079 438.387 192.339 444.781 176.327 447.41C173.566 447.872 171.2 448.048 169.193 448.048" clip-rule="evenodd" fill-rule="evenodd"></path>
</svg>
