<svg xmlns="http://www.w3.org/2000/svg" fill="none" viewBox="0 0 1001 751" height="751" width="1001">
<path fill="#989898" d="M575.508 374.819L556.566 179.97L537.355 378.052C549.805 376.686 562.523 375.602 575.508 374.819Z"></path>
<path fill="#C9C9C9" d="M621.761 373.386L621.828 179.97L556.566 179.943V179.97L575.509 374.818C590.636 373.895 606.098 373.413 621.761 373.386Z"></path>
<path fill="white" d="M537.355 378.051L556.566 179.97V179.943L386.015 179.97L386.082 415.18C426.176 397.623 478.319 384.564 537.355 378.051Z"></path>
<path fill="white" d="M478.854 466.272C481.197 466.693 489.631 469.157 489.631 475.134V570.958H518.145V462.858H478.854V466.272Z"></path>
<path fill="white" d="M254.888 462.858V466.272C258.302 466.988 265.799 469.083 262.787 475.823L220.283 570.958H242.706L256.026 541.306H303.082L314.729 570.958H344.247L302.078 462.858H254.888ZM262.051 527.879L281.127 485.341L297.861 527.879H262.051Z"></path>
<path fill="white" d="M691.641 462.858V466.272C695.055 466.988 702.552 469.083 699.54 475.823L657.036 570.958H679.459L692.779 541.306H739.835L751.481 570.958H781L738.831 462.858H691.641ZM698.803 527.879L717.88 485.341L734.547 527.879H698.803Z"></path>
<path fill="white" d="M615.871 570.958L660.918 462.858H639.566L606.567 542.129L575.107 462.858H535.08V466.272C539.698 467.162 544.919 469.157 547.262 475.134L585.281 570.958H615.871Z"></path>
<path fill="white" d="M418.411 570.958L463.459 462.858H442.106L409.107 542.129L377.648 462.858H337.621V466.272C342.239 467.162 347.46 469.157 349.803 475.134L387.822 570.958H418.411Z"></path>
</svg>
