<svg xmlns="http://www.w3.org/2000/svg" fill="none" viewBox="0 0 1001 751" height="751" width="1001">
<path fill="white" d="M589.99 279.804C548.07 279.804 510.608 301.532 510.608 341.676C510.608 387.714 577.048 390.894 577.048 414.022C577.048 423.761 565.888 432.478 546.827 432.478C519.776 432.478 499.557 420.297 499.557 420.297L490.906 460.807C490.906 460.807 514.197 471.097 545.12 471.097C590.952 471.097 627.017 448.302 627.017 407.471C627.017 358.823 560.299 355.738 560.299 334.271C560.299 326.642 569.461 318.284 588.467 318.284C609.912 318.284 627.409 327.142 627.409 327.142L635.875 288.016C635.875 288.016 616.838 279.804 589.99 279.804V279.804ZM206.459 282.757L205.444 288.662C205.444 288.662 223.08 291.89 238.964 298.329C259.416 305.712 260.873 310.01 264.317 323.359L301.851 468.051H352.166L429.68 282.757H379.48L329.673 408.739L309.349 301.95C307.485 289.729 298.044 282.757 286.487 282.757H206.459V282.757ZM449.866 282.757L410.486 468.051H458.355L497.596 282.757H449.866V282.757ZM716.849 282.757C705.306 282.757 699.191 288.937 694.703 299.736L624.571 468.051H674.771L684.483 439.999H745.64L751.546 468.051H795.84L757.198 282.757H716.849V282.757ZM723.378 332.818L738.258 402.349H698.394L723.378 332.818V332.818Z"></path>
</svg>
