<svg xmlns="http://www.w3.org/2000/svg" fill="none" viewBox="0 0 1001 751" height="751" width="1001">
<path fill="white" d="M232.151 463.341C280.69 463.341 320.025 423.99 320.025 375.45C320.025 326.911 280.69 287.56 232.151 287.56C183.611 287.56 144.26 326.911 144.26 375.45C144.26 423.99 183.611 463.341 232.151 463.341ZM183.466 370.832C183.579 403.934 208.704 424.54 232.845 424.458L232.844 424.457C262.652 424.36 280.285 399.881 280.221 377.533C280.14 355.201 267.997 339.054 241.241 332.53C241.176 332.255 241.128 331.658 241.128 331.093C241.08 314.219 253.804 299.331 269.79 296.021C268.288 295.504 265.818 295.311 263.46 295.311C245.181 295.375 225.013 303.207 210.287 315.382C195.205 327.88 183.385 348.953 183.466 370.832Z" clip-rule="evenodd" fill-rule="evenodd"></path>
<path fill="white" d="M376.783 411.847L349.914 347.726H367.466L384.227 390.306L400.471 347.726H417.232L391.154 411.847H376.783Z"></path>
<path fill="white" d="M463.995 379.455C463.995 376.791 463.688 374.256 463.059 371.85C462.445 369.444 461.508 367.377 460.265 365.649C459.022 363.905 457.52 362.533 455.744 361.515C453.967 360.482 451.884 359.965 449.495 359.965C447.105 359.965 445.006 360.482 443.246 361.515C441.469 362.533 439.952 363.905 438.724 365.649C437.481 367.377 436.544 369.444 435.931 371.85C435.301 374.256 434.994 376.791 434.994 379.455C434.994 382.216 435.301 384.784 435.931 387.141C436.544 389.499 437.449 391.566 438.644 393.342C439.838 395.118 441.356 396.523 443.181 397.556C444.99 398.574 447.105 399.091 449.495 399.091C451.884 399.091 453.967 398.574 455.744 397.556C457.52 396.523 459.022 395.118 460.265 393.342C461.508 391.566 462.445 389.499 463.059 387.141C463.688 384.784 463.995 382.216 463.995 379.455ZM480.223 379.526C480.223 383.708 479.577 387.809 478.302 391.846C477.01 395.883 475.104 399.484 472.569 402.681C470.05 405.878 466.853 408.446 462.994 410.399C459.135 412.353 454.63 413.322 449.495 413.322C444.344 413.322 439.839 412.353 435.995 410.399C432.136 408.446 428.939 405.878 426.404 402.681C423.885 399.484 421.98 395.883 420.688 391.846C419.412 387.809 418.766 383.708 418.766 379.526C418.766 375.36 419.412 371.29 420.688 367.286C421.98 363.297 423.885 359.729 426.404 356.58C428.939 353.431 432.136 350.912 435.995 349.007C439.839 347.102 444.344 346.133 449.495 346.133C454.63 346.133 459.119 347.102 462.929 349.007C466.74 350.912 469.937 353.431 472.505 356.58C475.088 359.729 477.01 363.297 478.302 367.286C479.577 371.29 480.223 375.36 480.223 379.526Z"></path>
<path fill="white" d="M529.78 361.838C526.599 360.595 523.644 359.965 520.899 359.965C518.089 359.965 515.651 360.515 513.632 361.58C511.598 362.645 509.918 364.083 508.594 365.907C507.27 367.732 506.285 369.783 505.623 372.06C504.961 374.32 504.622 376.662 504.622 379.067C504.622 381.732 504.912 384.283 505.494 386.737C506.059 389.176 506.947 391.323 508.142 393.148C509.321 394.973 510.823 396.442 512.631 397.556C514.44 398.654 516.587 399.219 519.058 399.219C521.092 399.219 523.159 398.655 525.275 397.556C527.39 396.442 528.892 395.118 529.78 393.616L529.78 361.838ZM531.104 411.847L530.442 406.938C528.94 408.617 526.954 410.103 524.467 411.378C521.997 412.67 519.074 413.316 515.715 413.316C511.307 413.316 507.399 412.38 504.057 410.523C500.682 408.666 497.856 406.179 495.563 403.079C493.27 399.978 491.51 396.378 490.315 392.292C489.137 388.223 488.539 383.96 488.539 379.52C488.539 375.354 489.153 371.268 490.38 367.28C491.623 363.291 493.496 359.723 496.015 356.574C498.551 353.425 501.699 350.906 505.51 349.001C509.305 347.096 513.778 346.127 518.896 346.127C522.255 346.127 525.888 346.756 529.78 347.984V323.117H546.266V411.847H531.104Z"></path>
<path fill="white" d="M592.706 381.78C590.93 381.874 589.089 382.039 587.216 382.249C585.343 382.475 583.567 382.765 581.871 383.12C578.286 383.831 575.816 385.042 574.427 386.77C573.055 388.514 572.36 390.387 572.36 392.438C572.36 394.553 573.135 396.265 574.702 397.556C576.268 398.832 578.464 399.478 581.322 399.478C583.47 399.478 585.553 399.042 587.555 398.154C589.557 397.266 591.285 396.151 592.706 394.827V381.78ZM594.03 411.798L593.384 407.002C591.592 408.972 589.331 410.522 586.57 411.637C583.809 412.751 580.789 413.316 577.495 413.316C574.734 413.316 572.07 412.847 569.551 411.911C566.999 410.991 564.755 409.65 562.801 407.923C560.847 406.195 559.265 404.08 558.07 401.544C556.859 399.009 556.261 396.151 556.261 392.954C556.261 389.773 556.875 386.947 558.134 384.509C559.378 382.071 561.057 380.02 563.205 378.325C565.336 376.645 567.791 375.273 570.552 374.207C573.297 373.142 576.203 372.334 579.223 371.801C581.354 371.365 583.696 371.042 586.231 370.815C588.766 370.589 590.881 370.396 592.577 370.218V369.282C592.577 365.729 591.673 363.21 589.832 361.692C588.007 360.19 585.488 359.432 582.291 359.432C580.418 359.432 578.625 359.658 576.93 360.11C575.235 360.546 573.733 361.096 572.393 361.757C571.052 362.436 569.874 363.097 568.84 363.759C567.823 364.422 566.999 365.019 566.37 365.552L560.912 353.99C561.622 353.361 562.704 352.618 564.174 351.73C565.643 350.841 567.403 349.969 569.502 349.13C571.585 348.29 573.927 347.58 576.542 346.998C579.158 346.417 581.984 346.126 584.988 346.126C588.54 346.126 591.786 346.595 594.708 347.531C597.631 348.468 600.166 349.921 602.298 351.923C604.413 353.91 606.076 356.429 607.287 359.497C608.482 362.548 609.079 366.246 609.079 370.59V411.798H594.03Z"></path>
<path fill="white" d="M660.041 337.746C659.508 337.489 658.474 337.101 656.924 336.616C655.358 336.132 653.307 335.889 650.724 335.889C648.431 335.889 646.493 336.584 644.943 337.956C643.393 339.329 642.618 341.573 642.618 344.673V347.725H656.456V361.031H642.747V411.847H626.244V361.031H617.735V347.725H626.244V344.27C626.244 340.104 626.777 336.584 627.843 333.693C628.909 330.819 630.394 328.461 632.3 326.653C634.205 324.828 636.449 323.488 639.017 322.648C641.6 321.808 644.394 321.389 647.414 321.389C651.402 321.389 654.696 321.76 657.312 322.519C659.928 323.279 661.462 323.779 661.898 324.053L660.041 337.746Z"></path>
<path fill="white" d="M705.011 379.455C705.011 376.791 704.688 374.256 704.075 371.85C703.461 369.444 702.525 367.377 701.281 365.649C700.038 363.905 698.536 362.533 696.76 361.515C694.984 360.482 692.901 359.965 690.511 359.965C688.121 359.965 686.022 360.482 684.262 361.515C682.486 362.533 680.968 363.905 679.724 365.649C678.497 367.377 677.561 369.444 676.931 371.85C676.317 374.256 676.011 376.791 676.011 379.455C676.011 382.216 676.317 384.784 676.931 387.141C677.561 389.499 678.465 391.566 679.66 393.342C680.855 395.118 682.373 396.523 684.181 397.556C686.006 398.574 688.121 399.091 690.511 399.091C692.901 399.091 694.984 398.574 696.76 397.556C698.536 396.523 700.038 395.118 701.281 393.342C702.525 391.566 703.461 389.499 704.075 387.141C704.688 384.784 705.011 382.216 705.011 379.455ZM721.239 379.526C721.239 383.708 720.594 387.809 719.302 391.846C718.026 395.883 716.121 399.484 713.586 402.681C711.067 405.878 707.869 408.446 704.01 410.399C700.151 412.353 695.646 413.322 690.511 413.322C685.36 413.322 680.855 412.353 677.012 410.399C673.152 408.446 669.955 405.878 667.42 402.681C664.901 399.484 662.996 395.883 661.704 391.846C660.412 387.809 659.782 383.708 659.782 379.526C659.782 375.36 660.412 371.29 661.704 367.286C662.996 363.297 664.901 359.729 667.42 356.58C669.955 353.431 673.152 350.912 677.012 349.007C680.855 347.102 685.36 346.133 690.511 346.133C695.646 346.133 700.135 347.102 703.946 349.007C707.756 350.912 710.954 353.431 713.521 356.58C716.105 359.729 718.026 363.297 719.302 367.286C720.594 371.29 721.239 375.36 721.239 379.526Z"></path>
<path fill="white" d="M772.443 411.847V375.273C772.443 370.396 771.426 366.618 769.391 363.954C767.34 361.305 764.515 359.965 760.865 359.965C758.298 359.965 755.924 360.627 753.76 361.967C751.581 363.291 749.691 364.761 748.093 366.36V411.847H731.606V347.725H746.639L747.431 352.78C750.014 350.664 752.905 349.017 756.15 347.871C759.38 346.708 762.641 346.143 765.919 346.143C769.294 346.143 772.394 346.643 775.236 347.661C778.078 348.694 780.517 350.309 782.551 352.521C784.602 354.733 786.168 357.624 787.282 361.16C788.38 364.713 788.946 368.975 788.946 373.933V411.847H772.443Z"></path>
<path fill="white" d="M840.262 372.076C840.084 369.863 839.616 367.926 838.857 366.295C838.098 364.648 837.162 363.324 836.048 362.306C834.933 361.273 833.739 360.53 832.447 360.03C831.139 359.546 829.831 359.303 828.491 359.303C825.633 359.303 822.92 360.368 820.336 362.5C817.753 364.632 816.235 367.813 815.783 372.076H840.262ZM815.395 383.912C815.75 389.321 817.43 393.229 820.465 395.619C823.485 398.008 827.409 399.219 832.204 399.219C834.433 399.219 836.532 399.01 838.486 398.622C840.44 398.219 842.184 397.717 843.701 397.088C845.219 396.474 846.511 395.845 847.577 395.231C848.643 394.602 849.434 394.02 849.983 393.487L854.375 406.938C853.745 407.374 852.744 407.971 851.371 408.73C849.999 409.489 848.287 410.183 846.253 410.862C844.218 411.524 841.812 412.089 839.067 412.589C836.322 413.073 833.302 413.316 830.025 413.316C825.842 413.316 821.886 412.654 818.108 411.33C814.345 409.99 811.035 407.923 808.209 405.129C805.367 402.336 803.107 398.864 801.428 394.698C799.732 390.532 798.892 385.559 798.892 379.794C798.892 374.384 799.667 369.589 801.218 365.423C802.768 361.257 804.899 357.753 807.596 354.911C810.309 352.085 813.457 349.905 817.042 348.387C820.643 346.885 824.47 346.126 828.555 346.126C832.64 346.126 836.403 346.805 839.875 348.129C843.33 349.453 846.317 351.52 848.853 354.313C851.371 357.107 853.374 360.724 854.827 365.164C856.296 369.589 857.023 374.869 857.023 380.989V383.911L815.395 383.912Z"></path>
</svg>
