<svg xmlns="http://www.w3.org/2000/svg" fill="none" viewBox="0 0 1001 751" height="751" width="1001">
<path fill="white" d="M876.156 348.487C872.11 341.155 863.389 335.594 853.916 335.594C845.584 335.594 838.256 339.006 838.256 347.853C838.256 355.303 847.481 360.357 857.084 366.551C867.564 373.12 878.435 381.199 878.435 395.23C878.435 413.55 860.622 424.789 840.028 424.789C831.562 424.789 822.723 423.148 812.742 419.358L814.379 394.974C819.185 404.706 828.158 412.408 841.413 412.408C851.649 412.408 859.225 407.485 859.225 398.89C859.225 391.562 853.03 387.016 845.459 382.471C829.535 372.872 819.437 365.158 819.437 351.266C819.437 330.415 836.867 323.469 854.931 323.469C865.412 323.469 871.988 325.366 878.678 325.366L876.156 348.487ZM787.854 370.337C785.571 374.131 782.679 379.302 780.9 383.1C779.389 390.298 778.629 399.905 778.629 410.511C778.629 414.935 779.389 420.869 781.407 422.892H755.008C759.675 418.473 761.576 391.318 761.328 382.722C757.79 370.471 752.981 358.72 745.657 344.441C740.994 335.476 735.555 327.003 732.142 325.366C738.077 324.866 745.657 324.484 749.325 324.484C755.889 324.484 757.665 325.366 761.71 334.213C768.015 348.491 772.69 359.219 775.473 367.185C782.171 356.697 786.843 349.499 792.907 339.644C794.422 337.243 795.686 334.213 795.686 331.304C795.686 329.026 795.304 326.503 794.297 325.366H820.448C815.395 326.503 792.651 362.258 787.854 370.337ZM696.01 348.239L680.351 382.215H705.865L696.01 348.239ZM726.711 423.774C718.368 423.774 717.742 423.526 711.044 400.535L708.647 392.069C704.61 393.962 697.399 394.848 685.908 394.848H674.286L672.263 399.141C669.359 405.592 665.443 413.16 665.443 418.477C665.443 419.74 665.569 421.125 666.077 422.896H597.098C601.018 418.477 602.281 404.203 604.174 378.299L604.552 372.112C605.564 357.33 606.331 345.96 606.197 338.007C606.071 331.438 605.438 327.267 603.671 325.374H630.33C626.536 328.282 625.143 343.942 623.38 369.846L622.872 376.032C622.238 385.635 620.979 395.485 620.979 405.088C620.979 409.504 622.746 410.515 627.3 410.515C643.463 410.515 647.513 410.137 654.833 405.21C659.378 396.871 664.566 386.382 669.611 375.52L676.443 360.994C682.882 347.35 689.194 333.449 689.194 330.801C689.194 328.9 688.69 327.137 687.939 325.366H709.159C709.159 325.366 717.746 357.204 719.643 364.02L723.807 379.436C731.005 405.336 735.559 417.965 741.623 422.892C736.562 423.526 729.364 423.774 726.711 423.774ZM554.783 424.789C529.643 424.789 515.113 404.073 515.113 380.829C515.113 348.491 532.669 323.469 566.149 323.469C576.633 323.469 581.565 325.366 590.022 325.366L587.499 350.254C582.698 341.537 574.862 335.598 564.382 335.598C543.54 335.598 535.074 358.09 535.074 377.417C535.074 398.386 546.826 409.877 562.485 409.877C570.951 409.877 578.401 407.603 590.912 398.89C585.859 415.065 574.107 424.789 554.783 424.789ZM467.619 337.243C465.218 337.243 462.306 337.243 460.039 337.495C459.28 341.663 458.646 348.865 457.76 360.483L457.253 367.311C458.524 367.567 460.161 367.697 461.68 367.697C473.802 367.697 482.145 360.361 482.145 349.251C482.145 341.663 476.84 337.243 467.619 337.243ZM502.858 427.064C495.66 427.064 493.889 425.923 491.492 422.637L464.203 384.737C462.054 381.833 460.413 379.432 457.005 379.432H456.371L455.872 386.76C455.234 396.741 454.856 404.706 454.856 410.641C454.982 417.21 455.742 421.247 457.513 422.892H431.109C434.895 419.48 436.28 408.11 438.433 378.295L438.815 372.108C439.826 357.456 440.586 346.082 440.456 338.129C440.326 331.179 439.575 326.881 437.673 325.366C452.707 325.366 473.676 325.366 473.676 325.366C485.423 325.366 501.594 327.393 501.594 346.464C501.594 362.124 491.106 370.719 478.099 374.757C479.363 375.898 481.633 378.802 483.027 380.574L502.858 406.851C515.239 423.148 516.246 423.904 520.674 426.179C515.113 426.808 507.663 427.064 502.858 427.064ZM379.825 348.239L364.024 382.215H389.668L379.825 348.239ZM410.514 423.774C402.183 423.774 401.549 423.526 394.855 400.535L392.454 392.069C388.404 393.962 381.206 394.848 369.711 394.848H358.089L356.07 399.141C354.047 403.695 349.12 413.046 349.246 418.477C349.246 419.74 349.372 421.004 349.879 422.896H326.51C333.205 416.202 341.67 400.665 353.418 375.524L360.242 360.998C366.428 347.862 373.001 332.954 373.001 330.805C373.001 328.904 372.501 327.141 371.738 325.37H392.966C392.966 325.37 398.515 346.468 403.446 364.025L407.614 379.44C414.816 405.34 419.362 417.969 425.426 422.896C419.995 423.526 413.171 423.774 410.514 423.774ZM290.248 337.117C288.351 337.117 285.828 337.117 283.428 337.373C282.416 344.193 281.783 350.762 281.283 357.96C281.283 357.96 280.901 364.147 280.901 363.895H283.428C295.809 363.895 307.183 359.601 307.183 348.239C307.183 341.663 301.748 337.117 290.248 337.117ZM287.096 375.772H280.15L279.138 390.172C278.634 396.493 278.379 401.794 278.253 408.11C278.253 409 281.031 410.893 287.595 410.893C301.24 410.893 310.213 404.073 310.213 392.825C310.213 380.318 299.977 375.772 287.096 375.772ZM288.611 422.892H254.502C258.799 419.098 259.937 404.321 261.83 378.295L262.207 372.234C263.223 357.452 263.978 346.082 263.853 338.129C263.727 331.304 262.967 326.881 261.07 325.366H299.221C308.316 325.366 326.51 325.873 326.51 344.819C326.51 357.452 314.759 365.284 304.023 368.07C319.182 369.586 330.552 376.91 330.552 392.573C330.548 409.5 314.633 422.892 288.611 422.892Z"></path>
<path fill="white" d="M177.73 311.712C174.35 311.712 173.651 312.301 172.555 313.524C172.124 313.495 171.673 313.487 171.202 313.487C168.602 313.487 165.263 313.869 162.416 315.774C159.666 317.59 158.358 320.803 159.824 323.155C159.824 323.155 160.807 321.713 164.041 321.713C164.495 321.713 164.999 321.761 165.535 321.806C170.004 322.334 173.31 324.686 172.908 330.897C172.551 337.104 170.223 344.026 160.701 344.107C160.701 344.107 159.475 344.107 158.167 343.985C153.735 343.502 152.342 340.719 152.342 340.719C152.342 340.719 156.172 339.679 156.205 334.817C156.172 331.51 153.292 328.484 149.137 327.261C147.776 326.863 146.281 326.668 144.725 326.668C139.826 326.668 134.326 328.72 130.618 333.562C122.209 344.663 121.527 360.847 123.578 375.897C125.642 390.979 135.208 404.949 135.488 405.331C135.691 405.599 135.874 405.745 136.081 405.745C136.187 405.745 136.296 405.696 136.41 405.603C140.541 401.594 144.482 396.114 146.167 392.45C147.971 393.888 147.029 396.947 146.037 400.212C145.095 403.552 142.804 407.983 141.975 409.413C141.175 410.81 140.103 412.435 141.545 413.284C141.691 413.374 141.878 413.422 142.101 413.422C143.954 413.422 148.312 410.193 153.174 403.71C158.618 396.415 161.38 389.94 161.38 389.94C161.778 390.029 162.444 390.703 162.334 392.539C162.261 394.404 160.344 401.342 156.611 407.801C152.837 414.255 149.352 418.293 148.649 419.211C148.215 419.743 148.584 420.076 148.865 420.292C149.141 420.478 155.815 426.71 165.511 431.974C176.999 438.096 182.092 439.196 182.092 439.196C182.092 439.196 187.174 438.124 198.662 432.006C208.354 426.734 215.056 420.474 215.304 420.263C215.584 420.072 215.942 419.771 215.519 419.186C214.857 418.309 211.36 414.251 207.594 407.797C203.873 401.383 201.883 394.4 201.855 392.56C201.777 390.703 202.403 390.09 202.785 389.935C202.785 389.935 205.575 396.451 211.019 403.706C215.905 410.197 220.223 413.418 222.084 413.418C222.319 413.418 222.506 413.37 222.661 413.28C224.058 412.431 223.018 410.782 222.197 409.401C221.434 407.979 219.11 403.576 218.123 400.209C217.177 396.906 216.194 393.851 218.03 392.446C219.72 396.11 223.631 401.618 227.775 405.57C227.884 405.684 228.01 405.741 228.132 405.741C228.315 405.741 228.51 405.599 228.681 405.351C228.985 404.945 238.568 391 240.615 375.893C242.67 360.81 241.992 344.663 233.575 333.558C229.891 328.703 224.35 326.64 219.419 326.64C217.879 326.64 216.409 326.839 215.064 327.225C210.876 328.484 208.009 331.539 208.033 334.813C208.033 339.675 211.884 340.715 211.884 340.715C211.884 340.715 210.596 343.429 206.006 343.981C205.149 344.087 204.316 344.135 203.52 344.135C200.067 344.135 197.159 343.039 194.478 339.253C191.878 335.609 191.963 328.106 191.813 325.604C191.695 323.065 191.151 317.37 188.482 315.047C185.821 312.662 182.58 311.862 178.538 311.704C178.242 311.712 177.978 311.712 177.73 311.712Z"></path>
</svg>
