<svg xmlns="http://www.w3.org/2000/svg" fill="none" viewBox="0 0 1001 751" height="751" width="1001">
<path fill="white" d="M513.242 432.476C509.99 430.028 501.627 419.568 495.123 410.968L492.8 407.713L483.152 394.232C480.24 390.048 480.705 385.616 484.669 381.092C485.134 380.503 485.831 379.697 486.76 378.643C487.457 377.837 488.262 377.017 488.959 376.21H489.083C489.315 375.854 489.656 375.513 490.012 375.157L490.353 374.691C491.282 373.762 492.103 372.832 492.908 371.902C497.322 367.377 501.271 363.534 503.253 362.264C505.576 360.744 506.97 359.35 504.988 355.972H504.879V355.867C503.826 353.883 498.251 347.84 490.121 347.267C490.012 347.267 490.012 347.267 489.888 347.267C489.888 347.267 489.78 347.267 489.656 347.267C489.548 347.267 489.548 347.267 489.424 347.267C489.191 347.267 489.083 347.267 488.851 347.267C488.727 347.267 488.618 347.267 488.618 347.267C488.386 347.267 488.154 347.267 488.03 347.267C487.798 347.267 487.689 347.267 487.457 347.372C486.172 347.495 484.902 347.728 483.849 348.301C483.74 348.301 483.74 348.301 483.74 348.301C483.508 348.424 483.384 348.424 483.152 348.533C481.758 349.23 480.473 350.052 479.435 351.214L479.079 351.554C477.809 352.717 476.524 354.003 475.021 355.63L459.798 370.971C457.94 372.83 455.384 375.62 450.738 375.62C447.486 375.62 445.163 373.295 445.163 369.576V326.11V325.878C445.163 325.755 445.163 325.522 445.163 325.413C445.163 316.333 442.376 309.483 437.606 306.229C434.354 303.905 430.637 303.207 427.276 303.083C423.327 303.083 419.951 304.013 418.325 304.712C414.144 306.463 414.268 307.966 414.965 310.755C415.77 313.901 416.358 322.966 416.467 332.031V432.94C416.467 443.508 421.81 446.653 429.475 446.653H432.619C439.944 446.653 445.163 443.399 445.163 432.94V431.42C445.396 428.399 445.163 412.004 445.163 409.447C445.163 404.334 448.415 403.172 450.63 403.172C456.205 403.172 458.296 406.317 461.656 410.501C463.283 412.469 476.415 428.864 483.508 437.231C489.083 443.972 494.194 446.653 499.536 446.653C507.435 446.653 513.118 441.074 514.404 438.982C516.603 435.728 515.441 434.21 513.242 432.474L513.242 432.476Z"></path>
<path fill="white" d="M390.682 306.231C387.429 303.907 383.713 303.086 380.337 303.086C376.388 303.086 373.027 304.015 371.509 304.714C367.22 306.465 367.328 307.968 368.025 310.757C369.186 314.708 369.651 328.081 369.651 338.897V347.265V433.174C369.651 443.742 375.118 446.764 382.66 446.764H385.68C393.005 446.764 398.239 443.51 398.239 433.174V326.113C398.239 325.881 398.239 325.648 398.239 325.416C398.114 316.336 395.328 309.486 390.682 306.232L390.682 306.231Z"></path>
<path fill="white" d="M263.94 333.891C273 333.786 279.737 330.994 283.113 326.345C288.223 319.248 285.668 310.183 284.615 307.393C283.918 305.642 282.648 305.302 281.951 305.302C281.951 305.302 184.131 305.302 183.898 305.302C174.953 305.407 168.101 308.091 164.731 312.74C159.736 319.945 162.176 329.01 163.221 331.799C163.918 333.426 165.195 333.783 165.892 333.891H204.345C206.78 334.014 208.762 335.751 209.459 338.075V433.05C209.459 438.163 210.729 441.541 212.82 443.633C215.142 445.957 218.627 446.887 222.576 446.887H225.72C232.921 446.887 238.264 443.633 238.264 433.282V339.826C238.264 336.572 240.587 334.015 243.498 333.891C243.498 333.891 263.708 333.891 263.94 333.891V333.891Z"></path>
<path fill="white" d="M323.3 403.762C323.3 414.795 313.311 424.914 299.141 424.914C289.725 424.914 285.544 420.963 285.544 414.795C285.544 407.249 296.586 399.346 317.957 397.827H319.242C321.442 397.827 323.192 399.578 323.3 401.779L323.3 403.762ZM351.299 410.038L351.408 385.151C351.408 356.562 345.136 340.059 304.825 340.059C274.75 340.059 261.618 352.61 261.618 365.053C261.618 376.319 275.091 377.481 279.04 377.372C279.504 377.25 280.093 377.016 280.558 376.319C284.274 368.881 291.352 362.032 304.593 362.032C318.546 362.032 322.603 366.448 323.192 377.372C323.067 378.876 321.798 380.162 320.28 380.162C309.595 381.2 273.232 385.508 262.423 398.757C257.668 404.692 256.507 411.2 256.507 419.211C256.507 436.071 269.051 447.817 289.726 447.817C301.34 447.817 311.809 443.865 319.119 436.892C319.475 436.535 319.816 436.303 320.172 436.195C320.869 435.729 321.907 435.373 322.836 435.373C323.533 435.496 324.353 435.604 325.05 436.195C325.391 436.66 325.515 437.001 325.515 437.001C326.676 439.914 328.302 442.006 330.393 443.633C337.47 448.623 346.53 446.19 349.318 445.136C353.747 443.277 353.747 441.774 352.926 438.861C351.765 434.801 351.3 421.196 351.3 410.039L351.299 410.038Z"></path>
<path fill="white" d="M714.675 306.231C711.423 303.907 707.706 303.086 704.346 303.086C700.397 303.086 697.02 304.015 695.394 304.714C691.213 306.465 691.321 307.968 692.018 310.757C693.071 314.708 693.644 328.081 693.644 338.897V347.265V433.639C693.644 444.099 699.343 446.888 706.901 446.888H709.921C717.23 446.888 722.465 443.634 722.465 433.283L722.233 326.113C722.233 325.881 722.233 325.648 722.109 325.416H722.233C722.109 316.336 719.321 309.486 714.675 306.232L714.675 306.231Z"></path>
<path fill="white" d="M647.293 403.762C647.293 414.795 637.304 424.914 623.134 424.914C613.61 424.914 609.537 420.963 609.537 414.795C609.537 407.249 620.579 399.346 641.95 397.827H643.236H643.112C645.326 397.827 647.185 399.578 647.293 401.779L647.293 403.762ZM675.293 410.038L675.417 385.151C675.417 356.562 669.144 340.059 628.833 340.059C598.619 340.059 585.61 352.61 585.61 365.053C585.61 376.319 599.083 377.481 603.033 377.372C603.389 377.25 604.086 377.016 604.426 376.319C608.267 368.881 615.236 362.032 628.601 362.032C642.415 362.032 646.596 366.448 647.061 377.372C647.061 378.876 645.791 380.162 644.165 380.162H644.273C633.587 381.2 597.117 385.508 586.431 398.757C581.661 404.692 580.5 411.2 580.5 419.211C580.5 436.071 593.044 447.817 613.61 447.817C625.349 447.817 635.802 443.865 643.112 436.892C643.468 436.535 643.808 436.303 644.165 436.195C644.862 435.729 645.899 435.373 646.828 435.373C647.417 435.496 648.346 435.604 648.919 436.195C649.384 436.66 649.508 437.001 649.508 437.001C650.669 439.914 652.295 442.006 654.386 443.633C661.479 448.623 670.538 446.19 673.326 445.136C677.739 443.277 677.616 441.774 676.919 438.861C675.757 434.801 675.293 421.196 675.293 410.039L675.293 410.038Z"></path>
<path fill="white" d="M837.236 432.476C833.984 430.028 825.621 419.568 819.116 410.968L816.67 407.713L807.145 394.232C804.249 390.048 804.714 385.616 808.663 381.092C809.128 380.503 809.825 379.697 810.63 378.643C811.451 377.837 812.147 377.017 812.953 376.21C813.309 375.854 813.65 375.513 814.006 375.157L814.347 374.691C815.276 373.762 816.097 372.832 816.902 371.902C821.316 367.377 825.265 363.534 827.247 362.264C829.57 360.744 830.855 359.35 828.873 355.972V355.867C827.835 353.883 822.245 347.84 814.114 347.267C814.005 347.267 814.005 347.267 813.882 347.267C813.773 347.267 813.773 347.267 813.65 347.267C813.541 347.267 813.417 347.267 813.417 347.267C813.185 347.267 812.953 347.267 812.844 347.267C812.72 347.267 812.612 347.267 812.488 347.267C812.379 347.267 812.147 347.267 812.024 347.267C811.791 347.267 811.683 347.267 811.451 347.372C810.165 347.495 808.895 347.728 807.842 348.301C807.733 348.301 807.733 348.301 807.733 348.301C807.501 348.424 807.269 348.424 807.145 348.533C805.751 349.23 804.481 350.052 803.428 351.214L803.087 351.554C801.802 352.717 800.408 354.003 798.906 355.63L783.683 370.971C781.824 372.83 779.377 375.62 774.732 375.62C771.371 375.62 769.156 373.295 769.156 369.576V326.11V325.878C769.156 325.755 769.156 325.522 769.156 325.413C769.048 316.333 766.26 309.483 761.614 306.229C758.362 303.905 754.646 303.207 751.269 303.083C747.32 303.083 743.836 304.013 742.334 304.712C738.137 306.463 738.137 307.966 738.958 310.755C739.778 313.901 740.243 322.966 740.475 332.031V432.94C740.475 443.508 745.694 446.653 753.484 446.653H756.504C763.937 446.653 769.156 443.399 769.156 432.94V431.42C769.389 428.399 769.156 412.004 769.156 409.447C769.156 404.334 772.3 403.172 774.623 403.172C780.198 403.172 782.289 406.317 785.665 410.501C787.291 412.469 800.408 428.864 807.501 437.231H807.376C813.075 443.972 818.186 446.653 823.405 446.653C831.427 446.653 837.126 441.074 838.396 438.982C840.61 435.728 839.449 434.21 837.234 432.474L837.236 432.476Z"></path>
<path fill="white" d="M587.934 333.891C596.993 333.786 603.854 330.994 607.106 326.345C612.217 319.248 609.77 310.183 608.608 307.393C608.035 305.642 606.641 305.302 606.053 305.302C606.053 305.302 508.24 305.302 508.008 305.302C498.948 305.407 492.103 308.091 488.851 312.74C483.74 319.945 486.172 329.01 487.333 331.799C487.922 333.426 489.316 333.783 489.889 333.891H528.342C530.788 334.014 532.879 335.751 533.452 338.075V433.05C533.452 438.163 534.737 441.541 536.937 443.633C539.26 445.957 542.636 446.887 546.693 446.887H549.713C557.038 446.887 562.257 443.633 562.257 433.282V339.826C562.257 336.572 564.58 334.015 567.615 333.891C567.615 333.891 587.701 333.891 587.934 333.891V333.891Z"></path>
</svg>
