<svg xmlns="http://www.w3.org/2000/svg" fill="none" viewBox="0 0 1001 751" height="751" width="1001">
<path fill="white" d="M445.542 321.28V417.202H500.55V395.412H470.379V321.28H445.542Z"></path>
<path fill="white" d="M546.416 360.365C535.369 360.365 528.207 368.593 528.207 378.803C528.207 389.469 534.912 398.231 545.654 398.231C556.016 398.231 564.626 390.612 564.626 379.412C564.626 368.213 556.626 360.365 546.416 360.365ZM504.665 379.108C504.665 357.698 520.512 338.803 541.769 338.803C551.064 338.803 556.93 341.927 563.787 348.175V340.327H586.72V417.202H563.407V409.66C557.311 415.679 549.083 419.107 540.474 419.031C519.217 419.107 504.665 403.793 504.665 379.108Z"></path>
<path fill="white" d="M655.519 417.202H600.434V321.28H625.348V395.412H655.519V417.202Z"></path>
<path fill="white" d="M689.043 417.202H665.805V340.327H688.966L689.043 417.202ZM663.595 320.823C663.519 313.051 669.767 306.728 677.462 306.652C685.233 306.575 691.557 312.823 691.633 320.518C691.633 328.366 685.233 334.765 677.386 334.765H677.309C669.767 334.765 663.595 328.594 663.595 321.051C663.595 320.975 663.595 320.899 663.595 320.823Z"></path>
<path fill="white" d="M737.727 358.689C726.908 358.689 721.499 367.603 721.499 377.127C721.499 387.031 727.366 395.184 737.575 395.184C749.156 395.184 755.403 385.888 755.403 377.279C755.403 366.994 749.689 358.689 737.727 358.689ZM698.947 377.279C698.947 356.479 712.128 338.803 732.318 338.803C742.07 338.803 748.622 341.927 755.251 348.937V340.327H777.422V408.06C777.422 431.831 759.594 444.249 738.185 444.249C719.366 444.249 702.909 434.726 700.471 417.431H726.528C729.727 422.688 733.004 423.678 738.718 423.678C746.794 423.678 754.26 419.945 754.26 411.564C754.337 409.66 754.337 407.755 754.108 405.774C749.613 409.812 741.308 414.688 732.166 414.688C712.433 414.688 698.947 398.155 698.947 377.279Z"></path>
<path fill="white" d="M829.155 360.365C818.107 360.365 810.946 368.593 810.946 378.803C810.946 389.469 817.65 398.231 828.393 398.231C838.755 398.231 847.288 390.612 847.288 379.412C847.288 368.213 839.364 360.365 829.155 360.365ZM787.403 379.108C787.403 357.698 803.25 338.803 824.507 338.803C833.879 338.803 839.745 341.927 846.526 348.175V340.327H869.459V417.202H846.145V409.66C840.05 415.679 831.821 419.107 823.212 419.031C801.955 419.107 787.403 403.793 787.403 379.108Z"></path>
<path fill="white" d="M167.113 303.562C166.753 304.283 167.023 305.139 167.699 305.5L211.893 331.178L211.983 331.223C212.479 331.494 213.064 331.448 213.47 331.133C213.605 331.043 213.74 330.908 213.83 330.773C213.875 330.728 213.92 330.638 213.965 330.547C222.48 315.456 237.301 305.004 254.375 301.986C254.42 301.986 254.511 301.986 254.556 301.941C254.736 301.896 254.916 301.805 255.051 301.715C255.502 301.4 255.727 300.859 255.637 300.319V300.229L246.266 249.998V249.908C246.221 249.682 246.131 249.502 245.996 249.322C245.681 248.917 245.185 248.691 244.645 248.736L244.509 248.781C211.938 254.728 183.557 274.73 167.113 303.562Z"></path>
<path fill="white" d="M141.885 400.6C142.111 401.096 142.561 401.411 143.057 401.456C143.282 401.456 143.552 401.456 143.732 401.321L191.395 382.941L191.485 382.896C191.981 382.67 192.341 382.22 192.341 381.679C192.341 381.499 192.341 381.319 192.296 381.184C192.296 381.094 192.251 381.049 192.206 380.958C185.764 364.876 186.89 346.765 195.225 331.583C195.27 331.538 195.27 331.493 195.315 331.448C195.405 331.268 195.45 331.088 195.45 330.908C195.495 330.367 195.225 329.827 194.729 329.556L194.639 329.511L149.634 305.364L149.544 305.319C149.364 305.229 149.138 305.184 148.958 305.184C148.463 305.184 147.967 305.409 147.697 305.86C147.697 305.905 147.652 305.95 147.652 305.95C131.839 335.052 129.722 369.741 141.885 400.6Z"></path>
<path fill="white" d="M202.478 480.339C202.973 480.474 203.514 480.294 203.874 479.934C204.054 479.753 204.144 479.528 204.235 479.303L219.416 430.514L219.462 430.423C219.597 429.883 219.462 429.342 219.056 428.982C218.921 428.847 218.786 428.757 218.606 428.712C218.515 428.667 218.47 428.667 218.38 428.621C201.802 423.666 188.287 411.547 181.574 395.6C181.574 395.555 181.529 395.51 181.529 395.42C181.439 395.239 181.349 395.104 181.214 394.969C180.809 394.609 180.223 394.519 179.727 394.699L179.637 394.744L132.74 415.016L132.65 415.061C132.47 415.152 132.29 415.287 132.154 415.422C131.839 415.827 131.749 416.368 131.884 416.818C131.884 416.863 131.929 416.908 131.929 416.908C144.904 447.497 170.717 470.698 202.478 480.339Z"></path>
<path fill="white" d="M302.083 482.682C302.489 482.366 302.714 481.871 302.669 481.33C302.624 481.105 302.534 480.88 302.399 480.654L273.927 438.217L273.837 438.127C273.522 437.676 272.981 437.451 272.44 437.541C272.26 437.586 272.125 437.631 271.945 437.722C271.855 437.767 271.81 437.812 271.765 437.857C257.484 447.678 239.599 450.606 222.93 445.831C222.885 445.785 222.84 445.785 222.75 445.785C222.57 445.74 222.39 445.74 222.21 445.785C221.669 445.876 221.218 446.281 221.083 446.777L221.038 446.867L207.433 496.106V496.197C207.253 496.917 207.613 497.638 208.334 497.908L208.469 497.954C240.41 506.964 274.693 501.377 302.083 482.682Z"></path>
<path fill="white" d="M366.956 406.592C366.956 405.781 366.37 405.15 365.559 405.105L314.653 401.141H314.563C314.022 401.096 313.526 401.411 313.256 401.862C313.166 401.997 313.121 402.177 313.121 402.357C313.121 402.447 313.121 402.538 313.121 402.583C311.995 419.882 303.165 435.74 289.109 445.831C289.064 445.876 289.019 445.876 288.974 445.921C288.839 446.056 288.704 446.191 288.614 446.326C288.343 446.822 288.389 447.407 288.704 447.858L288.749 447.948L318.933 489.169L318.978 489.259C319.113 489.439 319.248 489.574 319.473 489.665C319.924 489.89 320.464 489.89 320.915 489.619L321.005 489.529C347.81 470.068 364.658 439.704 366.956 406.592Z"></path>
<path fill="white" d="M347.719 308.293C347.313 307.932 346.773 307.842 346.277 308.022C346.052 308.112 345.872 308.247 345.692 308.428L310.553 345.504L310.462 345.594C310.102 345.999 310.012 346.585 310.192 347.081C310.237 347.261 310.327 347.396 310.462 347.531C310.507 347.576 310.598 347.666 310.643 347.711C323.347 359.469 330.149 376.318 329.113 393.617C329.113 393.663 329.113 393.753 329.113 393.798C329.113 393.978 329.158 394.158 329.203 394.338C329.429 394.834 329.879 395.194 330.42 395.239H330.51L381.552 397.717H381.642C381.867 397.717 382.047 397.672 382.272 397.582C382.723 397.402 383.083 396.951 383.128 396.456C383.128 396.411 383.128 396.366 383.128 396.321C384.93 363.209 371.956 330.998 347.719 308.293Z"></path>
<path fill="white" d="M258.385 262.612C257.619 262.747 257.124 263.513 257.259 264.279L264.737 314.825V314.915C264.872 315.636 265.503 316.131 266.269 316.086C266.359 316.086 266.449 316.086 266.494 316.041C283.613 313.293 301.047 318.339 314.022 329.827C314.067 329.872 314.112 329.917 314.157 329.962C314.292 330.052 314.472 330.142 314.653 330.232C315.193 330.367 315.734 330.232 316.094 329.827L316.184 329.736L349.612 291.128L349.657 291.038C349.792 290.858 349.882 290.678 349.927 290.498C350.062 290.002 349.927 289.462 349.567 289.101L349.476 289.011C324.519 267.207 291.182 257.521 258.385 262.612Z"></path>
<path fill="white" d="M255.232 334.872C231.896 334.872 212.975 353.793 212.975 377.174C212.975 400.51 231.896 419.431 255.277 419.431C278.613 419.431 297.534 400.51 297.534 377.174C297.489 353.793 278.613 334.917 255.232 334.872ZM285.956 400.961C286.587 399.249 286.812 397.222 286.992 395.69C286.136 396.501 285.19 397.267 284.244 397.988C281.541 399.97 278.478 401.366 275.189 402.132L267.035 393.212L266.945 393.302L272.891 403.754C271.179 406.682 268.882 409.25 266.089 411.187C265.143 411.908 264.107 412.539 263.07 413.079C264.602 413.35 266.539 413.8 268.386 413.71C259.917 416.728 250.682 416.728 242.212 413.71C244.059 413.8 245.996 413.35 247.528 413.079C246.492 412.539 245.456 411.863 244.51 411.187C241.762 409.205 239.419 406.682 237.707 403.754L243.654 393.257L243.564 393.167L235.365 402.087C232.076 401.366 229.012 399.97 226.309 397.988C225.363 397.267 224.417 396.501 223.561 395.69C223.787 397.267 223.967 399.249 224.643 401.006C219.327 394.203 216.443 385.779 216.443 377.174C216.443 376.724 216.443 376.318 216.489 375.913C216.939 377.715 218.02 379.562 218.786 380.959C219.011 379.787 219.282 378.616 219.642 377.49C220.678 374.246 222.39 371.228 224.643 368.705L236.356 371.093L236.401 370.957L225.453 366.002C225.138 362.668 225.544 359.289 226.58 356.136C226.94 355.01 227.391 353.883 227.931 352.802C226.445 353.523 224.417 354.379 222.976 355.64C228.156 347.937 235.86 342.306 244.825 339.783C243.113 340.774 241.672 342.441 240.5 343.657C241.672 343.477 242.888 343.432 244.059 343.432C247.438 343.387 250.817 344.108 253.88 345.459L255.232 357.262H255.367L256.718 345.414C259.827 344.063 263.16 343.387 266.539 343.387C267.756 343.387 268.927 343.477 270.098 343.612C268.927 342.396 267.485 340.729 265.773 339.738C274.693 342.261 282.442 347.847 287.578 355.55C286.136 354.289 284.154 353.433 282.667 352.712C283.208 353.793 283.658 354.875 284.019 356.046C285.055 359.244 285.46 362.578 285.145 365.912L274.243 370.912L274.288 371.048L286.001 368.66C288.298 371.183 289.965 374.201 291.001 377.445C291.362 378.571 291.677 379.742 291.857 380.914C292.623 379.517 293.659 377.715 294.155 375.913C294.155 376.318 294.2 376.724 294.2 377.129C294.155 385.779 291.272 394.158 285.956 400.961Z"></path>
<path fill="white" d="M238.157 371.588L244.69 391.635H265.818L272.351 371.588L255.277 359.154L238.157 371.588Z"></path>
</svg>
