<svg xmlns="http://www.w3.org/2000/svg" fill="none" viewBox="0 0 1001 751" height="751" width="1001">
<path fill="white" d="M795.84 490.93H205.443V259.97H795.84V490.93ZM294.885 396.603C294.885 382.967 281.376 378.351 267.656 378.351H235.768V381.485C235.768 381.485 235.768 381.485 241.824 382.968C246.355 382.968 246.355 382.968 246.355 387.541V402.702V433.107V448.268C246.355 452.884 246.355 452.884 241.824 454.366H235.768V457.33H275.194C290.397 457.33 302.55 449.75 302.55 434.59C302.55 422.436 290.397 416.38 278.2 414.898C284.383 413.373 294.885 407.275 294.885 396.603ZM258.509 414.898V382.968C258.509 382.968 263.04 381.485 266.174 381.485C276.718 381.485 282.859 389.023 282.859 398.128C282.859 410.282 276.718 414.898 266.174 414.898H258.509ZM258.509 445.304V417.862H266.174C278.2 417.862 290.397 422.436 290.397 434.59C290.397 446.786 284.383 454.366 272.187 454.366C263.04 454.366 258.509 452.884 258.509 445.304ZM326.773 448.268V433.107V396.603V373.905C320.76 375.387 313.095 376.869 305.557 376.869V379.834H310.088C314.747 379.834 316.229 381.485 316.229 385.932V433.107V448.268C316.229 452.884 316.229 452.884 311.613 454.366H308.606V457.33H335.963V454.366H331.432C331.033 454.177 330.66 454.013 330.313 453.86C327.935 452.809 326.773 452.296 326.773 448.268ZM354.173 457.33C360.186 457.33 364.844 454.366 369.333 451.232C370.858 454.366 372.382 457.33 376.871 457.33C383.054 457.33 387.543 454.366 392.074 449.75L390.549 448.268C389.938 448.268 389.319 448.52 388.593 448.817C387.557 449.239 386.303 449.75 384.536 449.75C381.529 449.75 379.878 448.268 379.878 445.304V416.38C379.878 407.275 375.389 404.184 363.193 404.184C355.697 404.184 343.501 408.8 343.501 414.898C343.501 416.38 345.025 417.862 348.117 417.862C351.166 417.862 352.648 416.38 354.173 411.764C355.697 408.8 357.179 407.275 361.71 407.275C366.369 407.275 369.333 410.282 369.333 414.898V428.534C355.697 430.016 341.976 433.107 341.976 445.304C341.976 451.232 346.508 457.33 354.173 457.33ZM351.166 442.17C351.166 434.59 360.186 431.498 369.333 431.498V448.268C367.851 449.75 364.844 451.232 360.186 451.232C355.697 451.232 351.166 446.786 351.166 442.17ZM433.151 416.38C436.116 416.38 437.64 414.898 437.64 411.764C437.64 407.275 429.975 404.184 420.955 404.184C404.228 404.184 395.081 416.38 395.081 431.498C395.081 445.304 404.228 457.33 417.949 457.33C425.486 457.33 433.151 454.366 439.165 446.786L437.64 445.304C434.634 448.268 429.975 449.75 423.962 449.75C411.766 449.75 404.228 440.688 404.228 427.052C404.228 414.898 410.284 407.275 419.431 407.275C422.437 407.275 425.486 408.8 426.969 411.764C427.304 412.118 427.637 412.539 427.986 412.981C429.227 414.55 430.674 416.38 433.151 416.38ZM461.863 448.268V433.107V431.498C462.793 431.498 464.322 433.216 466.738 435.93C468.283 437.665 470.19 439.808 472.535 442.17L480.073 451.232C481.725 452.884 481.725 454.366 480.073 454.366H475.584V457.33H501.416V454.366C496.8 454.366 495.276 452.884 492.269 449.75L487.686 444.847L471.053 427.052L487.738 411.764L487.77 411.733C490.755 408.789 492.291 407.275 498.41 407.275V404.184H475.584V407.275H480.073C481.725 408.8 483.207 410.282 481.724 411.764L461.863 430.016V396.603V373.905C455.85 375.387 448.312 376.869 440.647 376.869V379.834H445.178C449.836 379.834 451.319 381.485 451.319 385.932V433.107V448.268C451.319 452.884 451.319 452.884 446.66 454.366H442.172V457.33H471.053V454.366H466.522C466.123 454.177 465.75 454.013 465.403 453.86C463.024 452.809 461.863 452.296 461.863 448.268ZM508.954 457.33C510.436 455.848 511.961 455.848 511.961 455.848C513.275 455.848 514.574 456.109 516.082 456.411C518.172 456.831 520.665 457.33 524.157 457.33C534.829 457.33 543.849 452.884 543.849 440.688C543.849 433.107 537.836 430.016 528.646 425.442C519.626 422.436 516.619 420.954 516.619 414.898C516.619 410.282 521.108 407.275 527.164 407.275C534.829 407.275 537.835 411.764 539.318 420.953H542.324V404.184H540.842L537.835 405.666C537.328 405.666 536.658 405.502 535.762 405.283C533.965 404.844 531.262 404.184 527.164 404.184C518.144 404.184 508.954 408.8 508.954 419.471C508.954 428.534 515.095 433.107 522.633 436.114C533.304 439.206 534.829 442.17 534.829 446.786C534.829 451.232 531.78 454.366 524.157 454.366C516.619 454.366 511.961 449.75 508.954 439.205H507.472V457.33H508.954ZM551.514 410.282H557.527V446.786C557.527 452.884 562.058 457.33 569.723 457.33C575.737 457.33 580.268 455.848 584.926 449.75V448.268C580.268 451.232 578.744 451.232 575.737 451.232C571.206 451.232 568.199 449.75 568.199 443.694V410.282H584.926V405.666H568.199V392.03H566.674C562.058 399.737 557.527 404.184 551.514 408.8V410.282ZM616.814 404.184C603.094 404.184 589.415 414.898 589.415 431.498C589.415 448.268 603.094 457.33 616.814 457.33C630.323 457.33 644.044 446.786 644.044 431.498C644.044 414.898 630.323 404.184 616.814 404.184ZM615.29 407.275C625.834 407.275 631.975 417.862 631.975 431.498C631.975 443.695 627.359 454.366 616.814 454.366C606.1 454.366 601.611 443.694 601.611 430.016C601.611 417.862 606.1 407.275 615.29 407.275ZM682.072 410.282C688.086 410.282 691.093 414.898 691.093 422.436V433.107V448.268C691.093 452.884 691.093 452.884 686.604 454.366H683.555V457.33H710.827V454.366H707.778C703.289 452.884 703.289 452.884 703.289 448.268V433.107V419.471C703.289 410.282 697.106 404.184 688.086 404.184C680.421 404.184 674.408 407.275 668.394 411.764V402.702C662.211 405.666 656.198 407.275 648.66 407.275V410.282H651.667C656.198 410.282 657.722 413.373 657.722 419.471V433.107V448.268V448.268C657.722 452.884 657.722 452.884 653.191 454.366H648.66V457.33H677.414V454.366H672.883C672.49 454.169 672.121 453.999 671.779 453.84C669.541 452.803 668.394 452.271 668.394 448.268V433.107V414.898C669.02 414.58 669.646 414.195 670.314 413.784C672.855 412.22 676.003 410.282 682.072 410.282ZM739.666 404.184C724.505 404.184 715.316 417.862 715.316 431.498C715.316 445.304 724.505 457.33 738.183 457.33C747.204 457.33 754.869 452.884 760.882 446.786L759.4 445.304C757.875 446.786 751.862 449.75 744.197 449.75C730.519 449.75 724.505 439.205 724.505 425.442H760.882C759.4 413.373 751.862 404.184 739.666 404.184ZM750.38 422.436H725.987C725.987 414.898 730.518 407.275 738.183 407.275C745.721 407.275 750.38 414.898 750.38 422.436Z" clip-rule="evenodd" fill-rule="evenodd"></path>
</svg>
