<svg xmlns="http://www.w3.org/2000/svg" fill="none" viewBox="0 0 1001 751" height="751" width="1001">
<path fill="white" d="M448.193 381.74C448.193 416.211 421.226 441.612 388.132 441.612C355.037 441.612 328.071 416.211 328.071 381.74C328.071 347.026 355.037 321.868 388.132 321.868C421.226 321.868 448.193 347.026 448.193 381.74ZM421.901 381.74C421.901 360.199 406.271 345.46 388.132 345.46C369.992 345.46 354.362 360.199 354.362 381.74C354.362 403.065 369.992 418.019 388.132 418.019C406.271 418.019 421.901 403.038 421.901 381.74Z"></path>
<path fill="white" d="M577.763 381.74C577.763 416.211 550.796 441.612 517.701 441.612C484.607 441.612 457.64 416.211 457.64 381.74C457.64 347.053 484.607 321.868 517.701 321.868C550.796 321.868 577.763 347.026 577.763 381.74ZM551.471 381.74C551.471 360.199 535.841 345.46 517.701 345.46C499.562 345.46 483.932 360.199 483.932 381.74C483.932 403.065 499.562 418.019 517.701 418.019C535.841 418.019 551.471 403.038 551.471 381.74Z"></path>
<path fill="white" d="M701.934 325.485V432.974C701.934 477.19 675.858 495.249 645.031 495.249C616.013 495.249 598.548 475.84 591.961 459.968L614.852 450.439C618.928 460.184 628.916 471.683 645.004 471.683C664.737 471.683 676.965 459.509 676.965 436.591V427.98H676.047C670.162 435.241 658.825 441.585 644.518 441.585C614.582 441.585 587.156 415.509 587.156 381.956C587.156 348.16 614.582 321.868 644.518 321.868C658.798 321.868 670.135 328.211 676.047 335.257H676.965V325.512H701.934V325.485ZM678.827 381.956C678.827 360.874 664.764 345.46 646.867 345.46C628.727 345.46 613.529 360.874 613.529 381.956C613.529 402.822 628.727 418.019 646.867 418.019C664.764 418.019 678.827 402.822 678.827 381.956Z"></path>
<path fill="white" d="M743.099 262.481V437.941H717.455V262.481H743.099Z"></path>
<path fill="white" d="M843.031 401.445L863.438 415.05C856.851 424.795 840.979 441.585 813.553 441.585C779.541 441.585 754.14 415.293 754.14 381.713C754.14 346.108 779.757 321.841 810.611 321.841C841.681 321.841 856.878 346.567 861.845 359.929L864.572 366.731L784.535 399.88C790.663 411.892 800.192 418.02 813.553 418.02C826.942 418.02 836.228 411.433 843.031 401.445ZM780.216 379.904L833.718 357.689C830.775 350.211 821.921 345.001 811.502 345.001C798.14 345.001 779.541 356.798 780.216 379.904Z"></path>
<path fill="white" d="M231.001 366.164V340.763H316.598C317.435 345.19 317.867 350.427 317.867 356.096C317.867 375.153 312.657 398.719 295.867 415.509C279.536 432.515 258.669 441.585 231.028 441.585C179.794 441.585 136.712 399.852 136.712 348.618C136.712 297.384 179.794 255.652 231.028 255.652C259.371 255.652 279.563 266.773 294.733 281.269L276.809 299.193C265.931 288.989 251.192 281.053 231.001 281.053C193.588 281.053 164.326 311.205 164.326 348.618C164.326 386.032 193.588 416.184 231.001 416.184C255.268 416.184 269.089 406.439 277.943 397.585C285.123 390.405 289.847 380.147 291.71 366.137L231.001 366.164Z"></path>
</svg>
