<svg xmlns="http://www.w3.org/2000/svg" fill="none" viewBox="0 0 1001 751" height="751" width="1001">
<path fill="white" d="M198.872 523.649H205.895V468.062H199.769V465.223H248.482L248.632 481.361H245.643C241.758 470.901 238.47 468.062 230.7 468.062H220.689V493.316C221.286 493.465 222.033 493.465 222.631 493.465C228.907 493.465 232.045 490.178 233.091 482.258H236.08V508.408H233.091C232.493 499.89 229.355 496.454 222.332 496.454C221.735 496.454 221.286 496.603 220.689 496.603V523.799H230.401C240.114 523.799 245.045 518.718 248.034 506.316H250.873L250.275 526.787H198.872V523.649V523.649Z"></path>
<path fill="white" d="M298.391 523.649H304.069V526.488C298.092 526.488 292.115 526.787 285.988 527.235V517.821C282.552 524.396 278.218 527.534 271.643 527.534C267.609 527.534 264.62 526.338 262.827 523.948C261.632 522.154 261.333 519.913 261.333 516.775V512.741V492.418H255.505V489.579C262.08 489.43 268.057 489.131 273.436 488.683V518.419C273.436 521.856 274.482 523.499 277.172 523.499C281.356 523.499 285.839 517.223 285.839 510.051V492.568H279.414V489.729C285.54 489.729 291.816 489.28 298.241 488.832V523.649H298.391Z"></path>
<path fill="white" d="M307.506 523.799H312.288V492.569H307.506V489.73C313.184 489.58 318.863 489.132 324.541 488.534V498.695C326.932 492.27 331.116 488.833 335.449 488.833C339.932 488.833 343.219 492.12 343.219 496.454C343.219 500.339 340.679 503.178 336.794 503.178C333.656 503.178 331.116 500.488 331.116 496.902C331.116 495.109 332.162 494.362 332.162 493.465C332.162 493.166 331.863 492.868 331.415 492.868C329.323 492.868 324.69 499.442 324.69 507.063V523.799H331.116V526.638H307.506V523.799V523.799Z"></path>
<path fill="white" d="M367.426 488.683C379.978 488.683 388.496 496.901 388.496 508.108C388.496 519.315 380.128 527.683 367.426 527.683C354.875 527.683 346.507 519.465 346.507 508.258C346.507 497.051 354.875 488.683 367.426 488.683ZM360.403 508.108V511.844C360.403 521.407 360.852 525.292 367.426 525.292C374.001 525.292 374.45 521.108 374.45 509.453V503.924C374.45 494.809 373.852 490.775 367.426 490.775C360.702 490.924 360.403 495.706 360.403 508.108Z"></path>
<path fill="white" d="M391.933 544.569H397.013V492.717H391.186V489.878C397.611 489.729 403.737 489.28 409.416 488.683V495.706C412.105 490.924 415.841 488.683 420.922 488.683C430.336 488.683 437.508 496.901 437.508 508.258C437.508 519.315 430.336 527.683 420.922 527.683C415.841 527.683 412.105 525.442 409.416 520.66V544.419H415.841V547.258H391.933V544.569ZM423.611 498.545C423.611 493.614 423.163 491.372 419.129 491.372C413.45 491.372 409.266 496.303 409.266 504.671V511.694C409.266 520.062 413.301 524.994 419.129 524.994C423.014 524.994 423.611 522.603 423.611 517.97V498.545Z"></path>
<path fill="white" d="M481.739 514.982C478.75 523.649 473.072 527.683 464.106 527.683C451.554 527.683 443.635 520.062 443.635 508.557C443.635 497.349 452.002 488.683 463.957 488.683C474.716 488.683 481.44 495.407 481.44 506.166V506.614H457.98V515.878C457.98 522.453 459.474 525.292 465.152 525.292C472.325 525.292 477.256 521.557 479.796 514.085L481.739 514.982ZM469.635 503.775V496.602C469.635 492.568 467.842 490.924 463.658 490.924C459.773 490.924 457.681 492.717 457.681 496.602V503.775H469.635Z"></path>
<path fill="white" d="M496.382 527.535C490.256 527.535 486.969 524.098 486.969 518.27C486.969 510.649 495.038 505.121 509.532 505.121V496.155C509.532 492.27 508.486 491.074 503.555 491.074C500.566 491.074 498.923 491.822 498.923 493.316C498.923 494.212 500.566 495.557 500.566 498.247C500.566 501.833 498.474 503.776 494.589 503.776C491.152 503.776 489.359 501.684 489.359 497.948C489.359 492.12 495.187 488.534 505.946 488.534C511.026 488.534 514.762 489.431 517.004 490.626C520.44 492.569 520.739 494.81 520.739 499.293V518.42C520.739 520.661 521.486 521.707 523.578 521.707C524.774 521.707 525.222 520.811 525.82 520.811C526.417 520.811 526.716 521.259 526.716 521.707C526.716 523.351 523.578 527.535 518.348 527.535C514.463 527.535 511.325 525.144 510.13 521.109C506.245 525.742 502.21 527.535 496.382 527.535ZM508.636 507.81C501.612 507.81 498.773 509.604 498.773 514.983C498.773 520.213 500.118 522.454 503.704 522.454C507.141 522.454 509.682 519.914 509.682 515.73V507.81H508.636Z"></path>
<path fill="white" d="M533.74 523.799V492.419H527.763V489.43C533.59 489.43 539.567 489.281 545.993 488.833V498.246C549.43 491.672 553.763 488.833 560.189 488.833C569.602 488.833 570.499 493.315 570.499 502.281V523.948H575.729V526.787H553.763V523.948H558.395V497.948C558.395 494.511 557.349 493.016 554.66 493.016C550.476 493.016 545.993 499.143 545.993 506.465V524.097H550.476V526.937H528.36V524.097H533.74V523.799Z"></path>
<path fill="white" d="M613.086 523.649V468.062H606.81V465.223H639.385C651.937 465.223 659.11 471.2 659.11 479.867C659.11 487.338 653.432 491.971 642.374 493.614V494.362C655.075 495.557 661.351 500.638 661.351 509.603C661.351 519.914 652.684 526.489 638.788 526.489H606.81V523.5H613.086V523.649ZM633.259 492.867C642.075 492.867 643.719 490.476 643.719 480.465C643.719 469.258 642.822 468.062 632.81 468.062H627.73V492.867H633.259ZM635.5 523.649C644.018 523.649 645.213 520.96 645.213 509.603C645.213 498.396 643.121 495.557 634.155 495.557H627.581V523.649H635.5V523.649Z"></path>
<path fill="white" d="M675.099 527.535C668.972 527.535 665.685 524.098 665.685 518.27C665.685 510.649 673.754 505.121 688.248 505.121V496.155C688.248 492.27 687.202 491.074 682.271 491.074C679.283 491.074 677.639 491.822 677.639 493.316C677.639 494.212 679.283 495.557 679.283 498.247C679.283 501.833 677.191 503.776 673.305 503.776C669.869 503.776 668.075 501.684 668.075 497.948C668.075 492.12 673.903 488.534 684.662 488.534C689.742 488.534 693.478 489.431 695.72 490.626C699.156 492.569 699.455 494.81 699.455 499.293V518.42C699.455 520.661 700.202 521.707 702.294 521.707C703.49 521.707 703.938 520.811 704.536 520.811C705.134 520.811 705.432 521.259 705.432 521.707C705.432 523.351 702.294 527.535 697.064 527.535C693.179 527.535 690.041 525.144 688.846 521.109C684.961 525.742 680.926 527.535 675.099 527.535ZM687.202 507.81C680.179 507.81 677.489 509.604 677.489 514.983C677.489 520.213 678.834 522.454 682.421 522.454C685.857 522.454 688.398 519.914 688.398 515.73V507.81H687.202Z"></path>
<path fill="white" d="M712.754 523.799V492.419H706.777V489.43C712.605 489.43 718.582 489.281 725.007 488.833V498.246C728.444 491.672 732.778 488.833 739.352 488.833C748.766 488.833 749.663 493.315 749.663 502.281V523.948H754.893V526.787H732.927V523.948H737.559V497.948C737.559 494.511 736.513 493.016 733.824 493.016C729.64 493.016 725.157 499.143 725.157 506.465V524.097H729.64V526.937H707.375V524.097H712.754V523.799Z"></path>
<path fill="white" d="M762.215 523.798V468.062H757.881V465.223C762.663 465.073 768.192 464.625 774.468 464.027V523.649H780.146V526.488H757.881V523.649H762.215V523.798ZM790.457 492.568H782.089V489.729H800.917V492.568H794.342L785.077 500.637L802.261 523.948H805.997V526.787H783.284V523.948H787.767L775.066 506.465L790.457 492.568Z"></path>
<path fill="white" d="M55.72 577.294H52.2832V575.5H55.72V574.305C55.72 565.638 60.8006 559.661 67.226 559.661C71.2605 559.661 73.6514 561.753 73.6514 564.592C73.6514 566.983 72.456 568.328 70.2145 568.328C68.272 568.328 66.9271 566.983 66.9271 565.041C66.9271 563.247 68.4214 562.65 68.4214 562.052C68.4214 561.604 67.8237 561.305 66.7777 561.305C64.5363 561.305 63.1914 563.098 63.1914 566.834C63.1914 569.374 63.3409 571.615 63.3409 573.408V575.65H68.1226V577.443H63.3409V596.719H67.226V598.512H52.5821V596.719H55.72V577.294V577.294Z"></path>
<path fill="white" d="M84.8583 574.753C92.6286 574.753 97.8585 579.834 97.8585 586.707C97.8585 593.581 92.6286 598.811 84.8583 598.811C77.0881 598.811 72.0075 593.73 72.0075 586.857C71.8581 579.983 77.0881 574.753 84.8583 574.753ZM80.5249 586.857V589.248C80.5249 595.075 80.8238 597.616 84.8583 597.616C88.8929 597.616 89.1917 594.926 89.1917 587.903V584.466C89.1917 578.788 88.8929 576.397 84.8583 576.397C80.6743 576.247 80.5249 579.087 80.5249 586.857Z"></path>
<path fill="white" d="M101.445 596.42H104.433V577.144H101.445V575.351C104.882 575.201 108.468 575.052 111.905 574.604V580.88C113.399 576.995 115.939 574.753 118.629 574.753C121.319 574.753 123.411 576.845 123.411 579.535C123.411 581.926 121.767 583.719 119.526 583.719C117.583 583.719 115.939 582.075 115.939 579.834C115.939 578.788 116.537 578.339 116.537 577.742C116.537 577.592 116.388 577.443 116.089 577.443C114.744 577.443 111.905 581.477 111.905 586.11V596.42H115.939V598.213H101.445V596.42Z"></path>
<path fill="white" d="M146.871 596.271V562.052H142.687V560.259H162.71C171.078 560.259 175.561 563.248 175.561 568.478C175.561 573.857 171.377 577.145 163.607 577.593V578.041C171.676 579.237 174.366 582.972 174.366 591.49C174.366 594.478 174.665 595.973 176.757 595.973C177.354 595.973 178.251 595.823 179.147 595.375L179.745 597.019C177.205 598.214 174.963 598.812 173.469 598.812C170.331 598.812 167.94 597.766 166.446 596.122C164.055 593.283 164.205 589.697 164.055 585.513C163.906 580.432 162.113 578.489 156.883 578.489H155.986V596.122H160.618V598.065H142.687V596.122H146.871V596.271ZM160.469 576.846C164.952 576.846 165.699 575.053 165.699 569.673C165.699 563.098 165.549 562.052 160.469 562.052H155.986V576.846H160.469V576.846Z"></path>
<path fill="white" d="M204.7 591.041C202.907 596.42 199.321 598.961 193.792 598.961C186.021 598.961 181.24 594.179 181.24 587.156C181.24 580.282 186.47 574.903 193.792 574.903C200.367 574.903 204.55 579.087 204.55 585.662V585.961H190.056V591.639C190.056 595.673 190.953 597.466 194.539 597.466C199.022 597.466 202.01 595.076 203.654 590.593L204.7 591.041ZM197.229 584.167V579.685C197.229 577.294 196.183 576.248 193.642 576.248C191.251 576.248 190.056 577.294 190.056 579.685V584.167H197.229Z"></path>
<path fill="white" d="M230.999 591.041C229.355 596.271 225.919 598.811 221.137 598.811C214.114 598.811 208.884 593.432 208.884 586.707C208.884 580.133 214.413 574.753 221.585 574.753C226.666 574.753 229.953 577.592 229.953 581.179C229.953 583.271 228.459 584.914 226.367 584.914C223.976 584.914 222.631 583.271 222.631 581.029C222.631 578.788 224.275 578.19 224.275 577.443C224.275 576.546 223.378 576.098 221.436 576.098C217.401 576.098 217.252 578.339 217.252 583.121V590.144C217.252 594.926 217.7 597.018 221.585 597.018C225.47 597.018 228.16 594.777 229.505 590.443L230.999 591.041Z"></path>
<path fill="white" d="M247.735 574.753C255.505 574.753 260.735 579.834 260.735 586.707C260.735 593.581 255.505 598.811 247.735 598.811C239.965 598.811 234.884 593.73 234.884 586.857C234.884 579.983 239.965 574.753 247.735 574.753ZM243.401 586.857V589.248C243.401 595.075 243.7 597.616 247.735 597.616C251.769 597.616 252.068 594.926 252.068 587.903V584.466C252.068 578.788 251.769 576.397 247.735 576.397C243.551 576.247 243.401 579.087 243.401 586.857Z"></path>
<path fill="white" d="M267.16 596.42V577.144H263.574V575.351C267.16 575.351 270.896 575.202 274.781 574.903V580.731C276.873 576.696 279.562 574.903 283.597 574.903C289.275 574.903 290.022 577.742 290.022 583.121V596.42H293.16V598.214H279.712V596.42H282.551V580.282C282.551 578.19 281.953 577.144 280.31 577.144C277.769 577.144 274.93 580.88 274.93 585.363V596.271H277.62V598.064H263.873V596.271H267.16V596.42Z"></path>
<path fill="white" d="M296.299 589.696H297.793C298.989 594.627 301.828 597.317 305.713 597.317C309 597.317 310.943 595.374 310.943 593.133C310.943 590.443 308.403 590.742 303.92 589.995C298.69 589.248 296.299 587.455 296.299 582.972C296.299 577.891 299.437 574.753 304.069 574.753C306.012 574.753 307.805 575.351 309.299 576.098L310.495 575.052H311.541L311.69 581.477H310.196C309.15 577.891 307.058 576.098 304.069 576.098C300.931 576.098 298.989 577.592 298.989 579.236C298.989 581.328 301.38 581.328 306.012 582.075C311.541 582.822 313.932 584.765 313.932 589.995C313.932 595.374 310.794 598.662 305.564 598.662C303.023 598.662 300.931 597.914 299.288 596.719L297.793 598.064H296.449L296.299 589.696Z"></path>
<path fill="white" d="M319.759 577.144H316.621V575.351H319.759V568.328C320.805 568.478 321.851 568.478 322.897 568.478C324.242 568.478 325.587 568.328 327.081 568.179V575.351H331.564V577.144H327.081V592.984C327.081 594.926 327.529 595.524 328.874 595.524C330.219 595.524 331.265 594.179 331.414 592.237H332.908C332.759 596.122 329.621 598.811 325.288 598.811C320.506 598.811 319.759 597.168 319.759 592.984V577.144Z"></path>
<path fill="white" d="M335.299 596.42H338.288V577.144H335.299V575.351C338.736 575.201 342.322 575.052 345.759 574.604V580.88C347.254 576.995 349.794 574.753 352.484 574.753C355.173 574.753 357.265 576.845 357.265 579.535C357.265 581.926 355.621 583.719 353.38 583.719C351.438 583.719 349.794 582.075 349.794 579.834C349.794 578.788 350.392 578.339 350.392 577.742C350.392 577.592 350.242 577.443 349.943 577.443C348.748 577.443 345.759 581.477 345.759 586.11V596.42H349.794V598.213H335.299V596.42V596.42Z"></path>
<path fill="white" d="M385.059 596.42H388.645V598.213C384.91 598.213 381.323 598.363 377.588 598.662V592.834C375.496 596.868 372.806 598.811 368.771 598.811C366.231 598.811 364.438 598.064 363.243 596.57C362.495 595.524 362.346 594.029 362.346 592.087V589.696V577.144H358.76V575.351C362.794 575.351 366.53 575.052 369.817 574.753V593.133C369.817 595.225 370.415 596.271 372.059 596.271C374.599 596.271 377.438 592.386 377.438 587.903V577.144H373.553V575.351C377.438 575.351 381.174 575.052 385.059 574.753V596.42Z"></path>
<path fill="white" d="M413.45 591.041C411.806 596.271 408.369 598.811 403.588 598.811C396.565 598.811 391.335 593.432 391.335 586.707C391.335 580.133 396.864 574.753 404.036 574.753C409.117 574.753 412.404 577.592 412.404 581.179C412.404 583.271 410.91 584.914 408.818 584.914C406.427 584.914 405.082 583.271 405.082 581.029C405.082 578.788 406.726 578.19 406.726 577.443C406.726 576.546 405.829 576.098 403.887 576.098C399.852 576.098 399.703 578.339 399.703 583.121V590.144C399.703 594.926 400.151 597.018 404.036 597.018C407.921 597.018 410.611 594.777 411.956 590.443L413.45 591.041Z"></path>
<path fill="white" d="M419.876 577.144H416.738V575.351H419.876V568.328C420.922 568.478 421.968 568.478 423.014 568.478C424.358 568.478 425.703 568.328 427.197 568.179V575.351H431.68V577.144H427.197V592.984C427.197 594.926 427.646 595.524 428.991 595.524C430.335 595.524 431.382 594.179 431.531 592.237H433.025C432.876 596.122 429.738 598.811 425.404 598.811C420.623 598.811 419.876 597.168 419.876 592.984V577.144Z"></path>
<path fill="white" d="M435.117 596.421H438.405V577.144H434.819V575.351C438.853 575.202 442.589 575.053 446.026 574.604V596.271H449.463V598.064H435.117V596.421ZM441.991 561.604C444.083 561.604 445.876 563.397 445.876 565.639C445.876 567.88 444.233 569.673 441.991 569.673C439.899 569.673 438.106 567.731 438.106 565.639C438.106 563.397 439.899 561.604 441.991 561.604Z"></path>
<path fill="white" d="M464.555 574.753C472.325 574.753 477.555 579.834 477.555 586.707C477.555 593.581 472.325 598.811 464.555 598.811C456.784 598.811 451.704 593.73 451.704 586.857C451.704 579.983 456.784 574.753 464.555 574.753ZM460.221 586.857V589.248C460.221 595.075 460.52 597.616 464.555 597.616C468.589 597.616 468.888 594.926 468.888 587.903V584.466C468.888 578.788 468.589 576.397 464.555 576.397C460.371 576.247 460.221 579.087 460.221 586.857Z"></path>
<path fill="white" d="M483.532 596.42V577.144H479.946V575.351C483.532 575.351 487.268 575.202 491.153 574.903V580.731C493.245 576.696 495.934 574.903 499.969 574.903C505.647 574.903 506.394 577.742 506.394 583.121V596.42H509.532V598.214H496.084V596.42H498.923V580.282C498.923 578.19 498.325 577.144 496.681 577.144C494.141 577.144 491.302 580.88 491.302 585.363V596.271H493.992V598.064H480.244V596.271H483.532V596.42Z"></path>
<path fill="white" d="M534.487 598.811C530.751 598.811 528.659 596.719 528.659 593.133C528.659 588.351 533.59 585.064 542.556 585.064V579.535C542.556 577.144 541.958 576.397 538.82 576.397C536.878 576.397 535.981 576.845 535.981 577.742C535.981 578.339 537.027 579.087 537.027 580.73C537.027 582.972 535.682 584.167 533.291 584.167C531.199 584.167 530.004 582.822 530.004 580.581C530.004 576.995 533.59 574.753 540.165 574.753C543.303 574.753 545.544 575.351 546.889 576.098C548.981 577.293 549.131 578.788 549.131 581.328V593.133C549.131 594.478 549.579 595.075 550.774 595.075C551.522 595.075 551.82 594.627 552.119 594.627C552.418 594.627 552.717 594.926 552.717 595.225C552.717 596.271 550.774 598.811 547.487 598.811C545.096 598.811 543.154 597.317 542.407 594.926C540.613 597.616 538.073 598.811 534.487 598.811ZM541.958 586.558C537.625 586.558 535.981 587.604 535.981 591.041C535.981 594.179 536.878 595.673 538.97 595.673C541.062 595.673 542.556 594.179 542.556 591.489V586.558H541.958Z"></path>
<path fill="white" d="M557.797 596.42V577.144H554.211V575.351C557.797 575.351 561.533 575.202 565.418 574.903V580.731C567.51 576.696 570.2 574.903 574.235 574.903C579.913 574.903 580.66 577.742 580.66 583.121V596.42H583.798V598.214H570.349V596.42H573.189V580.282C573.189 578.19 572.591 577.144 570.947 577.144C568.407 577.144 565.568 580.88 565.568 585.363V596.271H568.257V598.064H554.51V596.271H557.797V596.42Z"></path>
<path fill="white" d="M603.373 594.627C601.729 597.466 599.338 598.961 596.2 598.961C590.522 598.961 586.039 593.731 586.039 587.006C586.039 579.983 590.373 574.903 596.2 574.903C599.338 574.903 601.729 576.397 603.373 579.236V562.201H599.189V560.408C603.821 560.259 607.706 560.109 610.844 559.661V596.42H613.833V598.213H603.373V594.627ZM603.373 584.765C603.373 579.684 600.833 576.546 597.246 576.546C594.856 576.546 594.557 577.891 594.557 580.73V592.834C594.557 595.823 595.005 597.317 597.246 597.317C600.833 597.317 603.373 594.179 603.373 589.098V584.765Z"></path>
<path fill="white" d="M637.592 596.271V562.052H633.259V560.259H651.638C656.42 560.259 660.156 561.006 663.443 563.696C667.776 566.984 670.466 572.811 670.466 579.237C670.466 585.662 667.627 591.49 663.294 594.927C660.305 597.168 656.42 598.214 651.339 598.214H633.109V596.271H637.592ZM651.19 596.271C654.477 596.271 656.569 595.973 658.064 594.03C660.006 591.639 660.305 587.455 660.305 581.329V578.639C660.305 572.512 660.156 568.179 658.811 565.34C657.316 562.351 655.075 561.903 651.19 561.903H646.707V596.122H651.19V596.271Z"></path>
<path fill="white" d="M697.811 591.041C696.018 596.42 692.432 598.961 686.903 598.961C679.133 598.961 674.351 594.179 674.351 587.156C674.351 580.282 679.581 574.903 686.903 574.903C693.478 574.903 697.662 579.087 697.662 585.662V585.961H683.167V591.639C683.167 595.673 684.064 597.466 687.65 597.466C692.133 597.466 695.122 595.076 696.765 590.593L697.811 591.041ZM690.34 584.167V579.685C690.34 577.294 689.294 576.248 686.754 576.248C684.363 576.248 683.167 577.294 683.167 579.685V584.167H690.34Z"></path>
<path fill="white" d="M701.697 577.294H699.306V575.5H712.605V577.294H709.915L715.294 589.995L719.628 579.535C719.777 579.236 719.927 578.788 719.927 578.19C719.927 577.592 719.478 577.294 718.432 577.294H716.042V575.5H725.007V577.294H723.513C722.616 577.294 722.168 577.592 721.57 578.937L713.202 599.11H711.708L701.697 577.294Z"></path>
<path fill="white" d="M749.663 591.041C747.87 596.42 744.433 598.961 738.755 598.961C730.985 598.961 726.203 594.179 726.203 587.156C726.203 580.282 731.433 574.903 738.755 574.903C745.33 574.903 749.514 579.087 749.514 585.662V585.961H735.019V591.639C735.019 595.673 735.916 597.466 739.502 597.466C743.985 597.466 746.973 595.076 748.617 590.593L749.663 591.041ZM742.192 584.167V579.685C742.192 577.294 741.146 576.248 738.605 576.248C736.215 576.248 735.019 577.294 735.019 579.685V584.167H742.192Z"></path>
<path fill="white" d="M755.042 596.421V562.052H751.456V560.259C755.49 560.11 759.226 559.96 762.663 559.512V596.271H766.1V598.064H751.755V596.271H755.042V596.421Z"></path>
<path fill="white" d="M781.641 574.753C789.411 574.753 794.641 579.834 794.641 586.707C794.641 593.581 789.411 598.811 781.641 598.811C773.871 598.811 768.79 593.73 768.79 586.857C768.641 579.983 773.871 574.753 781.641 574.753ZM777.307 586.857V589.248C777.307 595.075 777.606 597.616 781.641 597.616C785.675 597.616 785.974 594.926 785.974 587.903V584.466C785.974 578.788 785.675 576.397 781.641 576.397C777.457 576.247 777.307 579.087 777.307 586.857Z"></path>
<path fill="white" d="M797.48 609.271H800.618V577.293H797.031V575.5C801.066 575.351 804.801 575.201 808.238 574.753V579.087C809.882 576.247 812.273 574.753 815.261 574.753C821.089 574.753 825.423 579.834 825.423 586.857C825.423 593.73 820.94 598.811 815.261 598.811C812.123 598.811 809.882 597.466 808.238 594.478V609.122H812.273V610.915H797.629V609.271H797.48ZM817.055 580.88C817.055 577.891 816.756 576.397 814.215 576.397C810.629 576.397 808.089 579.535 808.089 584.615V588.949C808.089 594.029 810.629 597.167 814.215 597.167C816.606 597.167 817.055 595.673 817.055 592.834V580.88Z"></path>
<path fill="white" d="M831.699 596.42V577.144H828.262V575.351C831.699 575.351 835.285 575.202 839.021 574.903V580.731C841.113 576.696 843.653 574.903 847.688 574.903C851.722 574.903 853.814 576.845 853.964 580.581C856.056 576.696 858.596 574.903 862.63 574.903C865.171 574.903 866.964 575.65 868.01 576.995C868.906 578.041 868.906 579.386 868.906 581.179V582.823V596.42H872.343V598.214H858.596V596.42H861.435V580.432C861.435 578.34 860.837 577.443 859.194 577.443C856.653 577.443 853.814 581.029 853.814 585.662V596.42H856.504V598.214H843.653V596.42H846.492V580.432C846.492 578.34 845.894 577.443 844.251 577.443C841.71 577.443 839.021 581.179 839.021 585.662V596.42H841.71V598.214H828.71V596.42H831.699V596.42Z"></path>
<path fill="white" d="M898.344 591.041C896.551 596.42 893.114 598.961 887.435 598.961C879.665 598.961 874.884 594.179 874.884 587.156C874.884 580.282 880.113 574.903 887.435 574.903C894.01 574.903 898.194 579.087 898.194 585.662V585.961H883.7V591.639C883.7 595.673 884.596 597.466 888.183 597.466C892.665 597.466 895.654 595.076 897.298 590.593L898.344 591.041ZM890.872 584.167V579.685C890.872 577.294 889.826 576.248 887.286 576.248C884.895 576.248 883.7 577.294 883.7 579.685V584.167H890.872Z"></path>
<path fill="white" d="M904.769 596.42V577.144H901.183V575.351C904.769 575.351 908.505 575.202 912.39 574.903V580.731C914.482 576.696 917.172 574.903 921.206 574.903C926.884 574.903 927.632 577.742 927.632 583.121V596.42H930.77V598.214H917.321V596.42H920.16V580.282C920.16 578.19 919.563 577.144 917.919 577.144C915.379 577.144 912.539 580.88 912.539 585.363V596.271H915.229V598.064H901.482V596.271H904.769V596.42Z"></path>
<path fill="white" d="M935.701 577.144H932.563V575.351H935.701V568.328C936.747 568.478 937.793 568.478 938.988 568.478C940.333 568.478 941.678 568.328 943.172 568.179V575.351H947.655V577.144H943.172V592.984C943.172 594.926 943.621 595.524 944.965 595.524C946.31 595.524 947.356 594.179 947.506 592.237H949C948.851 596.122 945.713 598.811 941.379 598.811C936.598 598.811 935.85 597.168 935.85 592.984V577.144H935.701Z"></path>
<path fill="white" d="M569.005 165.62C547.935 155.011 519.096 150.977 496.233 160.689C448.715 181.46 431.83 233.162 431.382 281.278C432.278 308.473 439.6 333.279 453.198 354.946C462.014 348.072 466.049 337.911 470.382 328.646C476.808 312.359 480.394 295.025 480.095 276.048C481.59 240.484 495.038 201.184 530.303 185.943C557.349 175.931 584.844 187.586 603.224 208.955C625.638 236.001 634.753 274.553 625.04 309.52C618.914 335.968 599.04 366.75 570.798 374.072C557.051 377.957 541.062 375.716 528.958 369.141C521.786 380.498 512.521 391.257 501.613 399.326V399.624C522.234 408.889 549.729 407.245 569.304 396.337C532.993 423.533 476.061 430.855 433.025 412.774C422.267 408.441 411.956 402.912 402.243 395.889C424.807 408.59 460.072 412.176 483.831 397.682C522.383 374.521 538.073 332.382 540.315 290.542C541.809 259.312 533.74 231.219 518.648 206.863C509.383 214.185 505.05 224.644 500.866 234.507C493.843 251.99 491.302 271.117 491.601 291.289C488.911 324.313 475.164 360.325 442.888 375.268C419.428 385.279 392.979 376.314 375.047 358.831C345.461 329.991 336.346 282.174 350.093 243.174C356.967 219.863 376.542 193.563 401.496 187.736C414.795 183.701 430.933 186.242 442.888 192.667C449.761 181.609 459.474 170.701 470.382 163.23V162.931C450.807 153.965 422.715 155.161 403.738 165.471C437.209 141.264 488.015 132.896 529.257 146.494C543.004 150.827 556.602 156.954 569.005 165.62Z"></path>
</svg>
