<svg xmlns="http://www.w3.org/2000/svg" fill="none" viewBox="0 0 1001 751" height="751" width="1001">
<path fill="white" d="M197.345 369.737C196.999 364.544 195.614 359.35 192.844 354.85L169.301 313.648C167.57 310.532 166.185 307.07 165.492 303.608L164.454 305.339C158.568 315.379 158.568 328.19 164.454 338.231L183.496 371.122C189.382 381.163 189.382 393.973 183.496 404.014L182.457 405.745C181.765 402.283 180.38 398.821 178.649 395.705L161.337 365.583L150.258 346.194C148.527 343.078 147.142 339.615 146.45 336.153L145.411 337.884C139.525 347.925 139.525 360.389 145.411 370.776L164.454 403.668C170.339 413.708 170.339 426.519 164.454 436.559L163.415 438.291C162.722 434.828 161.337 431.366 159.606 428.25L135.717 387.049C132.6 381.509 131.216 375.277 131.216 369.045C105.941 375.623 88.2832 389.819 88.2832 406.091C88.2832 428.942 122.214 447.293 164.107 447.293C206.001 447.293 239.931 428.942 239.931 406.091C240.278 390.511 222.966 376.316 197.345 369.737ZM269.015 440.022C269.361 434.136 270.053 430.327 271.784 425.48C279.748 429.289 290.135 431.02 297.752 431.02C310.908 431.02 318.525 426.865 318.525 418.209C318.525 409.9 312.986 406.091 299.829 400.205L292.558 397.436C279.055 391.55 270.053 383.933 270.053 369.045C270.053 352.772 281.479 342.385 304.33 342.385C313.678 342.385 322.334 343.77 330.297 346.54C329.951 352.08 328.912 356.581 327.527 360.735C319.91 357.966 310.562 356.581 303.984 356.581C291.519 356.581 285.98 361.428 285.98 369.045C285.98 376.316 291.519 380.817 301.56 384.971L309.177 388.087C327.181 395.705 334.798 404.014 334.798 417.863C334.798 434.136 322.334 445.561 298.098 445.561C286.672 445.561 276.978 443.83 269.015 440.022V440.022ZM411.315 371.815V443.138H396.773L396.081 434.482C391.926 440.714 386.04 444.869 375.999 444.869C357.303 444.869 344.492 431.02 344.492 407.13C344.492 382.202 357.995 367.66 384.309 367.66C394.696 368.006 403.351 369.045 411.315 371.815V371.815ZM395.734 426.865V382.202C392.618 381.509 388.81 381.509 384.309 381.509C368.036 381.509 360.419 391.55 360.419 407.476C360.419 422.018 366.305 432.405 380.154 432.405C386.732 432.059 391.58 429.981 395.734 426.865ZM491.64 395.358V443.138H476.059V398.128C476.059 386.703 472.251 381.509 456.671 381.509C452.862 381.509 448.707 381.855 444.206 382.548V443.138H428.626V371.815C438.667 369.391 449.746 367.66 457.017 367.66C483.33 368.006 491.64 378.047 491.64 395.358V395.358ZM535.265 431.712C539.765 431.712 544.266 431.02 547.383 429.635C547.036 433.79 546.344 438.637 545.651 442.792C541.497 444.523 536.649 445.215 532.495 445.215C517.261 445.215 507.566 438.291 507.566 420.979V345.848C512.413 344.116 518.299 343.424 523.146 343.424V370.43H548.075C547.729 375.277 547.382 379.778 546.69 383.933H523.146V418.902C523.146 427.904 527.647 431.712 535.265 431.712V431.712ZM619.398 371.815V443.138H604.856L604.164 434.482C600.009 440.714 594.123 444.869 584.083 444.869C565.386 444.869 552.576 431.02 552.576 407.13C552.576 382.202 566.079 367.66 592.392 367.66C602.779 368.006 611.089 369.045 619.398 371.815V371.815ZM603.472 426.865V382.202C600.355 381.509 596.547 381.509 592.046 381.509C575.773 381.509 568.156 391.55 568.156 407.476C568.156 422.018 574.042 432.405 587.891 432.405C594.47 432.059 599.663 429.981 603.472 426.865V426.865ZM699.723 395.358V443.138H683.797V398.128C683.797 386.703 679.988 381.509 664.408 381.509C660.599 381.509 656.445 381.855 651.944 382.548V443.138H636.363V371.815C646.404 369.391 657.483 367.66 664.754 367.66C691.067 368.006 699.723 378.047 699.723 395.358V395.358ZM779.009 343.424V443.138H764.468L763.775 434.136C759.621 440.714 753.735 444.869 743.348 444.869C724.652 444.869 711.841 431.02 711.841 407.13C711.841 382.202 725.344 367.66 751.657 367.66C755.812 367.66 759.621 368.006 763.429 368.699V345.155C768.276 343.77 773.816 343.424 779.009 343.424V343.424ZM763.429 426.865V382.894C759.274 382.202 755.12 381.509 750.965 381.509C735.385 381.509 728.114 391.204 728.114 407.476C728.114 422.018 734 432.405 747.849 432.405C754.081 432.059 759.274 429.981 763.429 426.865ZM857.95 412.67H807.746C809.824 425.48 817.095 431.366 831.29 431.366C839.946 431.366 848.601 429.635 856.219 425.826C855.526 429.981 854.834 435.521 853.795 440.022C846.524 443.138 839.253 444.523 830.598 444.523C804.284 444.523 791.82 429.981 791.82 405.745C791.82 384.625 801.514 367.66 826.443 367.66C848.948 367.66 858.642 382.202 858.642 400.205C858.642 405.053 858.642 408.515 857.95 412.67V412.67ZM807.746 399.513H843.062C843.062 387.741 836.83 380.817 826.097 380.817C814.671 381.163 808.785 387.395 807.746 399.513V399.513ZM913 368.699C913 373.546 912.308 379.086 911.615 382.202C907.807 381.855 904.344 381.509 899.843 381.509C896.035 381.509 892.226 381.855 888.418 382.202V443.138H872.838V371.815C879.416 369.391 890.841 367.66 899.497 367.66C903.998 368.006 909.538 368.006 913 368.699V368.699Z"></path>
</svg>
